<?xml version="1.0" encoding="utf-8" standalone="no"?>
<!DOCTYPE svg PUBLIC "-//W3C//DTD SVG 1.1//EN"
  "http://www.w3.org/Graphics/SVG/1.1/DTD/svg11.dtd">
<svg xmlns:xlink="http://www.w3.org/1999/xlink" width="1000.138125pt" height="330.541644pt" viewBox="0 0 1000.138125 330.541644" xmlns="http://www.w3.org/2000/svg" version="1.1">
 <metadata>
  <rdf:RDF xmlns:dc="http://purl.org/dc/elements/1.1/" xmlns:cc="http://creativecommons.org/ns#" xmlns:rdf="http://www.w3.org/1999/02/22-rdf-syntax-ns#">
   <cc:Work>
    <dc:type rdf:resource="http://purl.org/dc/dcmitype/StillImage"/>
    <dc:date>2023-07-05T13:31:53.401483</dc:date>
    <dc:format>image/svg+xml</dc:format>
    <dc:creator>
     <cc:Agent>
      <dc:title>Matplotlib v3.6.2, https://matplotlib.org/</dc:title>
     </cc:Agent>
    </dc:creator>
   </cc:Work>
  </rdf:RDF>
 </metadata>
 <defs>
  <style type="text/css">*{stroke-linejoin: round; stroke-linecap: butt}</style>
 </defs>
 <g id="figure_1">
  <g id="axes_1">
   <g id="patch_1">
    <path d="M 53.328125 273.99006 
L 985.303125 273.99006 
L 985.303125 31.48286 
L 53.328125 31.48286 
z
" style="fill: #ffffff"/>
   </g>
   <g id="matplotlib.axis_1">
    <g id="xtick_1">
     <g id="text_1">
      <!-- 0 -->
      <g transform="translate(50.783125 287.06881) scale(0.08 -0.08)">
       <defs>
        <path id="DejaVuSans-30" d="M 2034 4250 
Q 1547 4250 1301 3770 
Q 1056 3291 1056 2328 
Q 1056 1369 1301 889 
Q 1547 409 2034 409 
Q 2525 409 2770 889 
Q 3016 1369 3016 2328 
Q 3016 3291 2770 3770 
Q 2525 4250 2034 4250 
z
M 2034 4750 
Q 2819 4750 3233 4129 
Q 3647 3509 3647 2328 
Q 3647 1150 3233 529 
Q 2819 -91 2034 -91 
Q 1250 -91 836 529 
Q 422 1150 422 2328 
Q 422 3509 836 4129 
Q 1250 4750 2034 4750 
z
" transform="scale(0.015625)"/>
       </defs>
       <use xlink:href="#DejaVuSans-30"/>
      </g>
     </g>
    </g>
    <g id="xtick_2">
     <g id="text_2">
      <!-- 20 -->
      <g transform="translate(234.633125 287.06881) scale(0.08 -0.08)">
       <defs>
        <path id="DejaVuSans-32" d="M 1228 531 
L 3431 531 
L 3431 0 
L 469 0 
L 469 531 
Q 828 903 1448 1529 
Q 2069 2156 2228 2338 
Q 2531 2678 2651 2914 
Q 2772 3150 2772 3378 
Q 2772 3750 2511 3984 
Q 2250 4219 1831 4219 
Q 1534 4219 1204 4116 
Q 875 4013 500 3803 
L 500 4441 
Q 881 4594 1212 4672 
Q 1544 4750 1819 4750 
Q 2544 4750 2975 4387 
Q 3406 4025 3406 3419 
Q 3406 3131 3298 2873 
Q 3191 2616 2906 2266 
Q 2828 2175 2409 1742 
Q 1991 1309 1228 531 
z
" transform="scale(0.015625)"/>
       </defs>
       <use xlink:href="#DejaVuSans-32"/>
       <use xlink:href="#DejaVuSans-30" x="63.623047"/>
      </g>
     </g>
    </g>
    <g id="xtick_3">
     <g id="text_3">
      <!-- 40 -->
      <g transform="translate(421.028125 287.06881) scale(0.08 -0.08)">
       <defs>
        <path id="DejaVuSans-34" d="M 2419 4116 
L 825 1625 
L 2419 1625 
L 2419 4116 
z
M 2253 4666 
L 3047 4666 
L 3047 1625 
L 3713 1625 
L 3713 1100 
L 3047 1100 
L 3047 0 
L 2419 0 
L 2419 1100 
L 313 1100 
L 313 1709 
L 2253 4666 
z
" transform="scale(0.015625)"/>
       </defs>
       <use xlink:href="#DejaVuSans-34"/>
       <use xlink:href="#DejaVuSans-30" x="63.623047"/>
      </g>
     </g>
    </g>
    <g id="xtick_4">
     <g id="text_4">
      <!-- 60 -->
      <g transform="translate(607.423125 287.06881) scale(0.08 -0.08)">
       <defs>
        <path id="DejaVuSans-36" d="M 2113 2584 
Q 1688 2584 1439 2293 
Q 1191 2003 1191 1497 
Q 1191 994 1439 701 
Q 1688 409 2113 409 
Q 2538 409 2786 701 
Q 3034 994 3034 1497 
Q 3034 2003 2786 2293 
Q 2538 2584 2113 2584 
z
M 3366 4563 
L 3366 3988 
Q 3128 4100 2886 4159 
Q 2644 4219 2406 4219 
Q 1781 4219 1451 3797 
Q 1122 3375 1075 2522 
Q 1259 2794 1537 2939 
Q 1816 3084 2150 3084 
Q 2853 3084 3261 2657 
Q 3669 2231 3669 1497 
Q 3669 778 3244 343 
Q 2819 -91 2113 -91 
Q 1303 -91 875 529 
Q 447 1150 447 2328 
Q 447 3434 972 4092 
Q 1497 4750 2381 4750 
Q 2619 4750 2861 4703 
Q 3103 4656 3366 4563 
z
" transform="scale(0.015625)"/>
       </defs>
       <use xlink:href="#DejaVuSans-36"/>
       <use xlink:href="#DejaVuSans-30" x="63.623047"/>
      </g>
     </g>
    </g>
    <g id="xtick_5">
     <g id="text_5">
      <!-- 80 -->
      <g transform="translate(793.818125 287.06881) scale(0.08 -0.08)">
       <defs>
        <path id="DejaVuSans-38" d="M 2034 2216 
Q 1584 2216 1326 1975 
Q 1069 1734 1069 1313 
Q 1069 891 1326 650 
Q 1584 409 2034 409 
Q 2484 409 2743 651 
Q 3003 894 3003 1313 
Q 3003 1734 2745 1975 
Q 2488 2216 2034 2216 
z
M 1403 2484 
Q 997 2584 770 2862 
Q 544 3141 544 3541 
Q 544 4100 942 4425 
Q 1341 4750 2034 4750 
Q 2731 4750 3128 4425 
Q 3525 4100 3525 3541 
Q 3525 3141 3298 2862 
Q 3072 2584 2669 2484 
Q 3125 2378 3379 2068 
Q 3634 1759 3634 1313 
Q 3634 634 3220 271 
Q 2806 -91 2034 -91 
Q 1263 -91 848 271 
Q 434 634 434 1313 
Q 434 1759 690 2068 
Q 947 2378 1403 2484 
z
M 1172 3481 
Q 1172 3119 1398 2916 
Q 1625 2713 2034 2713 
Q 2441 2713 2670 2916 
Q 2900 3119 2900 3481 
Q 2900 3844 2670 4047 
Q 2441 4250 2034 4250 
Q 1625 4250 1398 4047 
Q 1172 3844 1172 3481 
z
" transform="scale(0.015625)"/>
       </defs>
       <use xlink:href="#DejaVuSans-38"/>
       <use xlink:href="#DejaVuSans-30" x="63.623047"/>
      </g>
     </g>
    </g>
    <g id="xtick_6">
     <g id="text_6">
      <!-- 100 -->
      <g transform="translate(977.668125 287.06881) scale(0.08 -0.08)">
       <defs>
        <path id="DejaVuSans-31" d="M 794 531 
L 1825 531 
L 1825 4091 
L 703 3866 
L 703 4441 
L 1819 4666 
L 2450 4666 
L 2450 531 
L 3481 531 
L 3481 0 
L 794 0 
L 794 531 
z
" transform="scale(0.015625)"/>
       </defs>
       <use xlink:href="#DejaVuSans-31"/>
       <use xlink:href="#DejaVuSans-30" x="63.623047"/>
       <use xlink:href="#DejaVuSans-30" x="127.246094"/>
      </g>
     </g>
    </g>
    <g id="text_7">
     <!-- % GC -->
     <g transform="translate(505.610156 300.330997) scale(0.1 -0.1)">
      <defs>
       <path id="DejaVuSans-25" d="M 4653 2053 
Q 4381 2053 4226 1822 
Q 4072 1591 4072 1178 
Q 4072 772 4226 539 
Q 4381 306 4653 306 
Q 4919 306 5073 539 
Q 5228 772 5228 1178 
Q 5228 1588 5073 1820 
Q 4919 2053 4653 2053 
z
M 4653 2450 
Q 5147 2450 5437 2106 
Q 5728 1763 5728 1178 
Q 5728 594 5436 251 
Q 5144 -91 4653 -91 
Q 4153 -91 3862 251 
Q 3572 594 3572 1178 
Q 3572 1766 3864 2108 
Q 4156 2450 4653 2450 
z
M 1428 4353 
Q 1159 4353 1004 4120 
Q 850 3888 850 3481 
Q 850 3069 1003 2837 
Q 1156 2606 1428 2606 
Q 1700 2606 1854 2837 
Q 2009 3069 2009 3481 
Q 2009 3884 1853 4118 
Q 1697 4353 1428 4353 
z
M 4250 4750 
L 4750 4750 
L 1831 -91 
L 1331 -91 
L 4250 4750 
z
M 1428 4750 
Q 1922 4750 2215 4408 
Q 2509 4066 2509 3481 
Q 2509 2891 2217 2550 
Q 1925 2209 1428 2209 
Q 931 2209 642 2551 
Q 353 2894 353 3481 
Q 353 4063 643 4406 
Q 934 4750 1428 4750 
z
" transform="scale(0.015625)"/>
       <path id="DejaVuSans-20" transform="scale(0.015625)"/>
       <path id="DejaVuSans-47" d="M 3809 666 
L 3809 1919 
L 2778 1919 
L 2778 2438 
L 4434 2438 
L 4434 434 
Q 4069 175 3628 42 
Q 3188 -91 2688 -91 
Q 1594 -91 976 548 
Q 359 1188 359 2328 
Q 359 3472 976 4111 
Q 1594 4750 2688 4750 
Q 3144 4750 3555 4637 
Q 3966 4525 4313 4306 
L 4313 3634 
Q 3963 3931 3569 4081 
Q 3175 4231 2741 4231 
Q 1884 4231 1454 3753 
Q 1025 3275 1025 2328 
Q 1025 1384 1454 906 
Q 1884 428 2741 428 
Q 3075 428 3337 486 
Q 3600 544 3809 666 
z
" transform="scale(0.015625)"/>
       <path id="DejaVuSans-43" d="M 4122 4306 
L 4122 3641 
Q 3803 3938 3442 4084 
Q 3081 4231 2675 4231 
Q 1875 4231 1450 3742 
Q 1025 3253 1025 2328 
Q 1025 1406 1450 917 
Q 1875 428 2675 428 
Q 3081 428 3442 575 
Q 3803 722 4122 1019 
L 4122 359 
Q 3791 134 3420 21 
Q 3050 -91 2638 -91 
Q 1578 -91 968 557 
Q 359 1206 359 2328 
Q 359 3453 968 4101 
Q 1578 4750 2638 4750 
Q 3056 4750 3426 4639 
Q 3797 4528 4122 4306 
z
" transform="scale(0.015625)"/>
      </defs>
      <use xlink:href="#DejaVuSans-25"/>
      <use xlink:href="#DejaVuSans-20" x="95.019531"/>
      <use xlink:href="#DejaVuSans-47" x="126.806641"/>
      <use xlink:href="#DejaVuSans-43" x="204.296875"/>
     </g>
    </g>
   </g>
   <g id="matplotlib.axis_2">
    <g id="ytick_1">
     <g id="line2d_1">
      <path d="M 53.328125 273.99006 
L 985.303125 273.99006 
" clip-path="url(#p861e2a011b)" style="fill: none; stroke: #dedede; stroke-linecap: square"/>
     </g>
     <g id="text_8">
      <!-- 0 -->
      <g transform="translate(41.238125 277.029435) scale(0.08 -0.08)">
       <use xlink:href="#DejaVuSans-30"/>
      </g>
     </g>
    </g>
    <g id="ytick_2">
     <g id="line2d_2">
      <path d="M 53.328125 241.846315 
L 985.303125 241.846315 
" clip-path="url(#p861e2a011b)" style="fill: none; stroke: #dedede; stroke-linecap: square"/>
     </g>
     <g id="text_9">
      <!-- 2500 -->
      <g transform="translate(25.968125 244.88569) scale(0.08 -0.08)">
       <defs>
        <path id="DejaVuSans-35" d="M 691 4666 
L 3169 4666 
L 3169 4134 
L 1269 4134 
L 1269 2991 
Q 1406 3038 1543 3061 
Q 1681 3084 1819 3084 
Q 2600 3084 3056 2656 
Q 3513 2228 3513 1497 
Q 3513 744 3044 326 
Q 2575 -91 1722 -91 
Q 1428 -91 1123 -41 
Q 819 9 494 109 
L 494 744 
Q 775 591 1075 516 
Q 1375 441 1709 441 
Q 2250 441 2565 725 
Q 2881 1009 2881 1497 
Q 2881 1984 2565 2268 
Q 2250 2553 1709 2553 
Q 1456 2553 1204 2497 
Q 953 2441 691 2322 
L 691 4666 
z
" transform="scale(0.015625)"/>
       </defs>
       <use xlink:href="#DejaVuSans-32"/>
       <use xlink:href="#DejaVuSans-35" x="63.623047"/>
       <use xlink:href="#DejaVuSans-30" x="127.246094"/>
       <use xlink:href="#DejaVuSans-30" x="190.869141"/>
      </g>
     </g>
    </g>
    <g id="ytick_3">
     <g id="line2d_3">
      <path d="M 53.328125 209.70257 
L 985.303125 209.70257 
" clip-path="url(#p861e2a011b)" style="fill: none; stroke: #dedede; stroke-linecap: square"/>
     </g>
     <g id="text_10">
      <!-- 5000 -->
      <g transform="translate(25.968125 212.741945) scale(0.08 -0.08)">
       <use xlink:href="#DejaVuSans-35"/>
       <use xlink:href="#DejaVuSans-30" x="63.623047"/>
       <use xlink:href="#DejaVuSans-30" x="127.246094"/>
       <use xlink:href="#DejaVuSans-30" x="190.869141"/>
      </g>
     </g>
    </g>
    <g id="ytick_4">
     <g id="line2d_4">
      <path d="M 53.328125 177.558824 
L 985.303125 177.558824 
" clip-path="url(#p861e2a011b)" style="fill: none; stroke: #dedede; stroke-linecap: square"/>
     </g>
     <g id="text_11">
      <!-- 7500 -->
      <g transform="translate(25.968125 180.598199) scale(0.08 -0.08)">
       <defs>
        <path id="DejaVuSans-37" d="M 525 4666 
L 3525 4666 
L 3525 4397 
L 1831 0 
L 1172 0 
L 2766 4134 
L 525 4134 
L 525 4666 
z
" transform="scale(0.015625)"/>
       </defs>
       <use xlink:href="#DejaVuSans-37"/>
       <use xlink:href="#DejaVuSans-35" x="63.623047"/>
       <use xlink:href="#DejaVuSans-30" x="127.246094"/>
       <use xlink:href="#DejaVuSans-30" x="190.869141"/>
      </g>
     </g>
    </g>
    <g id="ytick_5">
     <g id="line2d_5">
      <path d="M 53.328125 145.415079 
L 985.303125 145.415079 
" clip-path="url(#p861e2a011b)" style="fill: none; stroke: #dedede; stroke-linecap: square"/>
     </g>
     <g id="text_12">
      <!-- 10000 -->
      <g transform="translate(20.878125 148.454454) scale(0.08 -0.08)">
       <use xlink:href="#DejaVuSans-31"/>
       <use xlink:href="#DejaVuSans-30" x="63.623047"/>
       <use xlink:href="#DejaVuSans-30" x="127.246094"/>
       <use xlink:href="#DejaVuSans-30" x="190.869141"/>
       <use xlink:href="#DejaVuSans-30" x="254.492188"/>
      </g>
     </g>
    </g>
    <g id="ytick_6">
     <g id="line2d_6">
      <path d="M 53.328125 113.271334 
L 985.303125 113.271334 
" clip-path="url(#p861e2a011b)" style="fill: none; stroke: #dedede; stroke-linecap: square"/>
     </g>
     <g id="text_13">
      <!-- 12500 -->
      <g transform="translate(20.878125 116.310709) scale(0.08 -0.08)">
       <use xlink:href="#DejaVuSans-31"/>
       <use xlink:href="#DejaVuSans-32" x="63.623047"/>
       <use xlink:href="#DejaVuSans-35" x="127.246094"/>
       <use xlink:href="#DejaVuSans-30" x="190.869141"/>
       <use xlink:href="#DejaVuSans-30" x="254.492188"/>
      </g>
     </g>
    </g>
    <g id="ytick_7">
     <g id="line2d_7">
      <path d="M 53.328125 81.127589 
L 985.303125 81.127589 
" clip-path="url(#p861e2a011b)" style="fill: none; stroke: #dedede; stroke-linecap: square"/>
     </g>
     <g id="text_14">
      <!-- 15000 -->
      <g transform="translate(20.878125 84.166964) scale(0.08 -0.08)">
       <use xlink:href="#DejaVuSans-31"/>
       <use xlink:href="#DejaVuSans-35" x="63.623047"/>
       <use xlink:href="#DejaVuSans-30" x="127.246094"/>
       <use xlink:href="#DejaVuSans-30" x="190.869141"/>
       <use xlink:href="#DejaVuSans-30" x="254.492188"/>
      </g>
     </g>
    </g>
    <g id="ytick_8">
     <g id="line2d_8">
      <path d="M 53.328125 48.983844 
L 985.303125 48.983844 
" clip-path="url(#p861e2a011b)" style="fill: none; stroke: #dedede; stroke-linecap: square"/>
     </g>
     <g id="text_15">
      <!-- 17500 -->
      <g transform="translate(20.878125 52.023219) scale(0.08 -0.08)">
       <use xlink:href="#DejaVuSans-31"/>
       <use xlink:href="#DejaVuSans-37" x="63.623047"/>
       <use xlink:href="#DejaVuSans-35" x="127.246094"/>
       <use xlink:href="#DejaVuSans-30" x="190.869141"/>
       <use xlink:href="#DejaVuSans-30" x="254.492188"/>
      </g>
     </g>
    </g>
    <g id="text_16">
     <!-- Count -->
     <g transform="translate(14.798437 167.584897) rotate(-90) scale(0.1 -0.1)">
      <defs>
       <path id="DejaVuSans-6f" d="M 1959 3097 
Q 1497 3097 1228 2736 
Q 959 2375 959 1747 
Q 959 1119 1226 758 
Q 1494 397 1959 397 
Q 2419 397 2687 759 
Q 2956 1122 2956 1747 
Q 2956 2369 2687 2733 
Q 2419 3097 1959 3097 
z
M 1959 3584 
Q 2709 3584 3137 3096 
Q 3566 2609 3566 1747 
Q 3566 888 3137 398 
Q 2709 -91 1959 -91 
Q 1206 -91 779 398 
Q 353 888 353 1747 
Q 353 2609 779 3096 
Q 1206 3584 1959 3584 
z
" transform="scale(0.015625)"/>
       <path id="DejaVuSans-75" d="M 544 1381 
L 544 3500 
L 1119 3500 
L 1119 1403 
Q 1119 906 1312 657 
Q 1506 409 1894 409 
Q 2359 409 2629 706 
Q 2900 1003 2900 1516 
L 2900 3500 
L 3475 3500 
L 3475 0 
L 2900 0 
L 2900 538 
Q 2691 219 2414 64 
Q 2138 -91 1772 -91 
Q 1169 -91 856 284 
Q 544 659 544 1381 
z
M 1991 3584 
L 1991 3584 
z
" transform="scale(0.015625)"/>
       <path id="DejaVuSans-6e" d="M 3513 2113 
L 3513 0 
L 2938 0 
L 2938 2094 
Q 2938 2591 2744 2837 
Q 2550 3084 2163 3084 
Q 1697 3084 1428 2787 
Q 1159 2491 1159 1978 
L 1159 0 
L 581 0 
L 581 3500 
L 1159 3500 
L 1159 2956 
Q 1366 3272 1645 3428 
Q 1925 3584 2291 3584 
Q 2894 3584 3203 3211 
Q 3513 2838 3513 2113 
z
" transform="scale(0.015625)"/>
       <path id="DejaVuSans-74" d="M 1172 4494 
L 1172 3500 
L 2356 3500 
L 2356 3053 
L 1172 3053 
L 1172 1153 
Q 1172 725 1289 603 
Q 1406 481 1766 481 
L 2356 481 
L 2356 0 
L 1766 0 
Q 1100 0 847 248 
Q 594 497 594 1153 
L 594 3053 
L 172 3053 
L 172 3500 
L 594 3500 
L 594 4494 
L 1172 4494 
z
" transform="scale(0.015625)"/>
      </defs>
      <use xlink:href="#DejaVuSans-43"/>
      <use xlink:href="#DejaVuSans-6f" x="69.824219"/>
      <use xlink:href="#DejaVuSans-75" x="131.005859"/>
      <use xlink:href="#DejaVuSans-6e" x="194.384766"/>
      <use xlink:href="#DejaVuSans-74" x="257.763672"/>
     </g>
    </g>
   </g>
   <g id="line2d_9">
    <path d="M 53.328125 273.99006 
L 62.647875 273.99006 
L 71.967625 273.983631 
L 81.287375 273.977203 
L 90.607125 273.977203 
L 99.926875 273.977203 
L 109.246625 273.983631 
L 118.566375 273.99006 
L 127.886125 273.99006 
L 137.205875 273.99006 
L 146.525625 273.93863 
L 155.845375 273.8872 
L 165.165125 273.8872 
L 174.484875 273.848628 
L 183.804625 273.810055 
L 193.124375 273.810055 
L 202.444125 273.810055 
L 211.763875 273.73291 
L 221.083625 273.655765 
L 230.403375 273.655765 
L 239.723125 273.655765 
L 249.042875 272.948603 
L 258.362625 272.24144 
L 267.682375 272.24144 
L 277.002125 272.24144 
L 286.321875 269.522079 
L 295.641625 266.802719 
L 304.961375 266.802719 
L 314.281125 266.802719 
L 323.600875 257.513176 
L 332.920625 248.223634 
L 342.240375 248.223634 
L 351.560125 248.223634 
L 360.879875 228.480946 
L 370.199625 208.738257 
L 379.519375 208.738257 
L 388.839125 208.738257 
L 398.158875 179.243157 
L 407.478625 149.748056 
L 416.798375 149.748056 
L 426.118125 118.292187 
L 435.437875 86.836318 
L 444.757625 86.836318 
L 454.077375 86.836318 
L 463.397125 64.93357 
L 472.716875 43.030822 
L 482.036625 43.030822 
L 491.356375 43.030822 
L 500.676125 44.953018 
L 509.995875 46.875214 
L 519.315625 46.875214 
L 528.635375 46.875214 
L 537.955125 68.520812 
L 547.274875 90.16641 
L 556.594625 90.16641 
L 565.914375 90.16641 
L 575.234125 120.137238 
L 584.553875 150.108066 
L 593.873625 150.108066 
L 603.193375 150.108066 
L 612.513125 178.34956 
L 621.832875 206.591055 
L 631.152625 206.591055 
L 640.472375 226.04445 
L 649.792125 245.497844 
L 659.111875 245.497844 
L 668.431625 245.497844 
L 677.751375 255.057394 
L 687.071125 264.616944 
L 696.390875 264.616944 
L 705.710625 264.616944 
L 715.030375 268.197757 
L 724.350125 271.77857 
L 733.669875 271.77857 
L 742.989625 271.77857 
L 752.309375 272.685024 
L 761.629125 273.591478 
L 770.948875 273.591478 
L 780.268625 273.591478 
L 789.588375 273.758625 
L 798.908125 273.925773 
L 808.227875 273.925773 
L 817.547625 273.925773 
L 826.867375 273.93863 
L 836.187125 273.951488 
L 845.506875 273.951488 
L 854.826625 273.951488 
L 864.146375 273.970774 
L 873.466125 273.99006 
L 882.785875 273.99006 
L 892.105625 273.983631 
L 901.425375 273.977203 
L 910.745125 273.977203 
L 920.064875 273.977203 
L 929.384625 273.983631 
L 938.704375 273.99006 
L 948.024125 273.99006 
L 957.343875 273.99006 
L 966.663625 273.99006 
L 975.983375 273.99006 
L 985.303125 273.99006 
" clip-path="url(#p861e2a011b)" style="fill: none; stroke: #5cb85c; stroke-linecap: square"/>
   </g>
   <g id="line2d_10">
    <path d="M 53.328125 273.925773 
L 62.647875 273.829341 
L 71.967625 273.437188 
L 81.287375 273.27004 
L 90.607125 273.231468 
L 99.926875 273.032176 
L 109.246625 273.000033 
L 118.566375 272.916459 
L 127.886125 272.781455 
L 137.205875 272.685024 
L 146.525625 272.640023 
L 155.845375 272.614308 
L 165.165125 272.524305 
L 174.484875 272.453589 
L 183.804625 272.466446 
L 193.124375 272.427874 
L 202.444125 272.157867 
L 211.763875 271.752855 
L 221.083625 271.26427 
L 230.403375 271.052122 
L 239.723125 271.135695 
L 249.042875 270.782114 
L 258.362625 270.004236 
L 267.682375 269.207071 
L 277.002125 268.403477 
L 286.321875 267.940607 
L 295.641625 266.661286 
L 304.961375 264.726233 
L 314.281125 263.569058 
L 323.600875 262.026158 
L 332.920625 260.952557 
L 342.240375 260.354683 
L 351.560125 258.31677 
L 360.879875 256.46529 
L 370.199625 255.038108 
L 379.519375 252.961622 
L 388.839125 251.650157 
L 398.158875 249.316521 
L 407.478625 245.697135 
L 416.798375 243.305641 
L 426.118125 242.450617 
L 435.437875 241.557021 
L 444.757625 239.422676 
L 454.077375 236.028297 
L 463.397125 232.923211 
L 472.716875 230.51243 
L 482.036625 227.934502 
L 491.356375 225.453005 
L 500.676125 223.06151 
L 509.995875 221.550754 
L 519.315625 221.068598 
L 528.635375 221.00431 
L 537.955125 221.139314 
L 547.274875 220.972167 
L 556.594625 220.020712 
L 565.914375 219.937138 
L 575.234125 220.528583 
L 584.553875 220.072142 
L 593.873625 223.845817 
L 603.193375 231.907469 
L 612.513125 235.649001 
L 621.832875 240.17484 
L 631.152625 247.432898 
L 640.472375 252.228744 
L 649.792125 257.127451 
L 659.111875 262.598317 
L 668.431625 266.314134 
L 677.751375 268.037038 
L 687.071125 269.432077 
L 696.390875 270.640682 
L 705.710625 271.097123 
L 715.030375 271.463562 
L 724.350125 271.920003 
L 733.669875 272.19001 
L 742.989625 272.530734 
L 752.309375 272.897173 
L 761.629125 273.090035 
L 770.948875 273.090035 
L 780.268625 273.141465 
L 789.588375 273.244325 
L 798.908125 273.308613 
L 808.227875 273.417901 
L 817.547625 273.540048 
L 826.867375 273.559334 
L 836.187125 273.63005 
L 845.506875 273.745768 
L 854.826625 273.707195 
L 864.146375 273.662194 
L 873.466125 273.78434 
L 882.785875 273.83577 
L 892.105625 273.810055 
L 901.425375 273.829341 
L 910.745125 273.867914 
L 920.064875 273.880771 
L 929.384625 273.842199 
L 938.704375 273.78434 
L 948.024125 273.758625 
L 957.343875 273.78434 
L 966.663625 273.73291 
L 975.983375 272.55002 
L 985.303125 271.444275 
" clip-path="url(#p861e2a011b)" style="fill: none; stroke: #d9534f; stroke-linecap: square"/>
   </g>
   <g id="line2d_11">
    <path d="M 53.328125 273.99006 
L 62.647875 273.99006 
L 71.967625 273.983631 
L 81.287375 273.977203 
L 90.607125 273.977203 
L 99.926875 273.977203 
L 109.246625 273.983631 
L 118.566375 273.99006 
L 127.886125 273.99006 
L 137.205875 273.99006 
L 146.525625 273.93863 
L 155.845375 273.8872 
L 165.165125 273.8872 
L 174.484875 273.848628 
L 183.804625 273.810055 
L 193.124375 273.810055 
L 202.444125 273.810055 
L 211.763875 273.73291 
L 221.083625 273.655765 
L 230.403375 273.655765 
L 239.723125 273.655765 
L 249.042875 272.948603 
L 258.362625 272.24144 
L 267.682375 272.24144 
L 277.002125 272.24144 
L 286.321875 269.522079 
L 295.641625 266.802719 
L 304.961375 266.802719 
L 314.281125 266.802719 
L 323.600875 257.513176 
L 332.920625 248.223634 
L 342.240375 248.223634 
L 351.560125 248.223634 
L 360.879875 228.480946 
L 370.199625 208.738257 
L 379.519375 208.738257 
L 388.839125 208.738257 
L 398.158875 179.243157 
L 407.478625 149.748056 
L 416.798375 149.748056 
L 426.118125 118.292187 
L 435.437875 86.836318 
L 444.757625 86.836318 
L 454.077375 86.836318 
L 463.397125 64.93357 
L 472.716875 43.030822 
L 482.036625 43.030822 
L 491.356375 43.030822 
L 500.676125 44.953018 
L 509.995875 46.875214 
L 519.315625 46.875214 
L 528.635375 46.875214 
L 537.955125 68.520812 
L 547.274875 90.16641 
L 556.594625 90.16641 
L 565.914375 90.16641 
L 575.234125 120.137238 
L 584.553875 150.108066 
L 593.873625 150.108066 
L 603.193375 150.108066 
L 612.513125 178.34956 
L 621.832875 206.591055 
L 631.152625 206.591055 
L 640.472375 226.04445 
L 649.792125 245.497844 
L 659.111875 245.497844 
L 668.431625 245.497844 
L 677.751375 255.057394 
L 687.071125 264.616944 
L 696.390875 264.616944 
L 705.710625 264.616944 
L 715.030375 268.197757 
L 724.350125 271.77857 
L 733.669875 271.77857 
L 742.989625 271.77857 
L 752.309375 272.685024 
L 761.629125 273.591478 
L 770.948875 273.591478 
L 780.268625 273.591478 
L 789.588375 273.758625 
L 798.908125 273.925773 
L 808.227875 273.925773 
L 817.547625 273.925773 
L 826.867375 273.93863 
L 836.187125 273.951488 
L 845.506875 273.951488 
L 854.826625 273.951488 
L 864.146375 273.970774 
L 873.466125 273.99006 
L 882.785875 273.99006 
L 892.105625 273.983631 
L 901.425375 273.977203 
L 910.745125 273.977203 
L 920.064875 273.977203 
L 929.384625 273.983631 
L 938.704375 273.99006 
L 948.024125 273.99006 
L 957.343875 273.99006 
L 966.663625 273.99006 
L 975.983375 273.99006 
L 985.303125 273.99006 
" clip-path="url(#p861e2a011b)" style="fill: none; stroke: #5cb85c; stroke-linecap: square"/>
   </g>
   <g id="line2d_12">
    <path d="M 53.328125 273.925773 
L 62.647875 273.829341 
L 71.967625 273.437188 
L 81.287375 273.27004 
L 90.607125 273.231468 
L 99.926875 273.032176 
L 109.246625 273.000033 
L 118.566375 272.916459 
L 127.886125 272.781455 
L 137.205875 272.685024 
L 146.525625 272.640023 
L 155.845375 272.614308 
L 165.165125 272.524305 
L 174.484875 272.453589 
L 183.804625 272.466446 
L 193.124375 272.427874 
L 202.444125 272.157867 
L 211.763875 271.752855 
L 221.083625 271.26427 
L 230.403375 271.052122 
L 239.723125 271.135695 
L 249.042875 270.782114 
L 258.362625 270.004236 
L 267.682375 269.207071 
L 277.002125 268.403477 
L 286.321875 267.940607 
L 295.641625 266.661286 
L 304.961375 264.726233 
L 314.281125 263.569058 
L 323.600875 262.026158 
L 332.920625 260.952557 
L 342.240375 260.354683 
L 351.560125 258.31677 
L 360.879875 256.46529 
L 370.199625 255.038108 
L 379.519375 252.961622 
L 388.839125 251.650157 
L 398.158875 249.316521 
L 407.478625 245.697135 
L 416.798375 243.305641 
L 426.118125 242.450617 
L 435.437875 241.557021 
L 444.757625 239.422676 
L 454.077375 236.028297 
L 463.397125 232.923211 
L 472.716875 230.51243 
L 482.036625 227.934502 
L 491.356375 225.453005 
L 500.676125 223.06151 
L 509.995875 221.550754 
L 519.315625 221.068598 
L 528.635375 221.00431 
L 537.955125 221.139314 
L 547.274875 220.972167 
L 556.594625 220.020712 
L 565.914375 219.937138 
L 575.234125 220.528583 
L 584.553875 220.072142 
L 593.873625 223.845817 
L 603.193375 231.907469 
L 612.513125 235.649001 
L 621.832875 240.17484 
L 631.152625 247.432898 
L 640.472375 252.228744 
L 649.792125 257.127451 
L 659.111875 262.598317 
L 668.431625 266.314134 
L 677.751375 268.037038 
L 687.071125 269.432077 
L 696.390875 270.640682 
L 705.710625 271.097123 
L 715.030375 271.463562 
L 724.350125 271.920003 
L 733.669875 272.19001 
L 742.989625 272.530734 
L 752.309375 272.897173 
L 761.629125 273.090035 
L 770.948875 273.090035 
L 780.268625 273.141465 
L 789.588375 273.244325 
L 798.908125 273.308613 
L 808.227875 273.417901 
L 817.547625 273.540048 
L 826.867375 273.559334 
L 836.187125 273.63005 
L 845.506875 273.745768 
L 854.826625 273.707195 
L 864.146375 273.662194 
L 873.466125 273.78434 
L 882.785875 273.83577 
L 892.105625 273.810055 
L 901.425375 273.829341 
L 910.745125 273.867914 
L 920.064875 273.880771 
L 929.384625 273.842199 
L 938.704375 273.78434 
L 948.024125 273.758625 
L 957.343875 273.78434 
L 966.663625 273.73291 
L 975.983375 272.55002 
L 985.303125 271.444275 
" clip-path="url(#p861e2a011b)" style="fill: none; stroke: #d9534f; stroke-linecap: square"/>
   </g>
   <g id="line2d_13">
    <path d="M 53.328125 273.99006 
L 62.647875 273.99006 
L 71.967625 273.99006 
L 81.287375 273.99006 
L 90.607125 273.99006 
L 99.926875 273.99006 
L 109.246625 273.983631 
L 118.566375 273.977203 
L 127.886125 273.977203 
L 137.205875 273.977203 
L 146.525625 273.970774 
L 155.845375 273.964345 
L 165.165125 273.964345 
L 174.484875 273.912915 
L 183.804625 273.861485 
L 193.124375 273.861485 
L 202.444125 273.861485 
L 211.763875 273.874343 
L 221.083625 273.8872 
L 230.403375 273.8872 
L 239.723125 273.8872 
L 249.042875 273.591478 
L 258.362625 273.295755 
L 267.682375 273.295755 
L 277.002125 273.295755 
L 286.321875 272.665738 
L 295.641625 272.03572 
L 304.961375 272.03572 
L 314.281125 272.03572 
L 323.600875 270.132811 
L 332.920625 268.229901 
L 342.240375 268.229901 
L 351.560125 268.229901 
L 360.879875 264.051214 
L 370.199625 259.872527 
L 379.519375 259.872527 
L 388.839125 259.872527 
L 398.158875 253.058053 
L 407.478625 246.243579 
L 416.798375 246.243579 
L 426.118125 239.306959 
L 435.437875 232.370339 
L 444.757625 232.370339 
L 454.077375 232.370339 
L 463.397125 226.282313 
L 472.716875 220.194288 
L 482.036625 220.194288 
L 491.356375 220.194288 
L 500.676125 218.38781 
L 509.995875 216.581331 
L 519.315625 216.581331 
L 528.635375 216.581331 
L 537.955125 221.139314 
L 547.274875 225.697297 
L 556.594625 225.697297 
L 565.914375 225.697297 
L 575.234125 232.62106 
L 584.553875 239.544823 
L 593.873625 239.544823 
L 603.193375 239.544823 
L 612.513125 246.80288 
L 621.832875 254.060938 
L 631.152625 254.060938 
L 640.472375 259.030361 
L 649.792125 263.999784 
L 659.111875 263.999784 
L 668.431625 263.999784 
L 677.751375 266.995581 
L 687.071125 269.991378 
L 696.390875 269.991378 
L 705.710625 269.991378 
L 715.030375 271.508563 
L 724.350125 273.025748 
L 733.669875 273.025748 
L 742.989625 273.025748 
L 752.309375 273.437188 
L 761.629125 273.848628 
L 770.948875 273.848628 
L 780.268625 273.848628 
L 789.588375 273.8872 
L 798.908125 273.925773 
L 808.227875 273.925773 
L 817.547625 273.925773 
L 826.867375 273.957916 
L 836.187125 273.99006 
L 845.506875 273.99006 
L 854.826625 273.99006 
L 864.146375 273.99006 
L 873.466125 273.99006 
L 882.785875 273.99006 
L 892.105625 273.99006 
L 901.425375 273.99006 
L 910.745125 273.99006 
L 920.064875 273.99006 
L 929.384625 273.977203 
L 938.704375 273.964345 
L 948.024125 273.964345 
L 957.343875 273.964345 
L 966.663625 273.867914 
L 975.983375 273.771483 
L 985.303125 273.771483 
" clip-path="url(#p861e2a011b)" style="fill: none; stroke: #5cb85c; stroke-linecap: square"/>
   </g>
   <g id="line2d_14">
    <path d="M 53.328125 273.93863 
L 62.647875 273.893629 
L 71.967625 273.893629 
L 81.287375 273.848628 
L 90.607125 273.777911 
L 99.926875 273.810055 
L 109.246625 273.777911 
L 118.566375 273.752196 
L 127.886125 273.78434 
L 137.205875 273.803626 
L 146.525625 273.745768 
L 155.845375 273.707195 
L 165.165125 273.687909 
L 174.484875 273.649336 
L 183.804625 273.610764 
L 193.124375 273.430759 
L 202.444125 273.27004 
L 211.763875 273.295755 
L 221.083625 273.257183 
L 230.403375 273.192895 
L 239.723125 273.057891 
L 249.042875 272.955031 
L 258.362625 272.942174 
L 267.682375 272.672166 
L 277.002125 272.479304 
L 286.321875 272.247869 
L 295.641625 272.048578 
L 304.961375 271.997148 
L 314.281125 271.772142 
L 323.600875 271.283557 
L 332.920625 270.968548 
L 342.240375 270.653539 
L 351.560125 270.126382 
L 360.879875 269.631368 
L 370.199625 269.213499 
L 379.519375 268.885633 
L 388.839125 268.139898 
L 398.158875 266.963437 
L 407.478625 266.1277 
L 416.798375 265.343393 
L 426.118125 264.334079 
L 435.437875 263.620488 
L 444.757625 262.881182 
L 454.077375 262.148304 
L 463.397125 260.920413 
L 472.716875 260.103962 
L 482.036625 260.078247 
L 491.356375 260.412542 
L 500.676125 260.965414 
L 509.995875 261.814009 
L 519.315625 262.572602 
L 528.635375 262.83618 
L 537.955125 263.0419 
L 547.274875 262.816894 
L 556.594625 263.067615 
L 565.914375 263.434054 
L 575.234125 264.109073 
L 584.553875 265.568399 
L 593.873625 266.545569 
L 603.193375 266.995581 
L 612.513125 267.786317 
L 621.832875 268.859918 
L 631.152625 269.798516 
L 640.472375 270.492821 
L 649.792125 271.167839 
L 659.111875 271.817143 
L 668.431625 272.132152 
L 677.751375 272.44716 
L 687.071125 272.710739 
L 696.390875 272.955031 
L 705.710625 273.282898 
L 715.030375 273.417901 
L 724.350125 273.462903 
L 733.669875 273.540048 
L 742.989625 273.668623 
L 752.309375 273.78434 
L 761.629125 273.842199 
L 770.948875 273.900058 
L 780.268625 273.925773 
L 789.588375 273.900058 
L 798.908125 273.906486 
L 808.227875 273.93863 
L 817.547625 273.945059 
L 826.867375 273.964345 
L 836.187125 273.964345 
L 845.506875 273.957916 
L 854.826625 273.964345 
L 864.146375 273.964345 
L 873.466125 273.964345 
L 882.785875 273.957916 
L 892.105625 273.957916 
L 901.425375 273.977203 
L 910.745125 273.977203 
L 920.064875 273.951488 
L 929.384625 273.945059 
L 938.704375 273.932201 
L 948.024125 273.919344 
L 957.343875 273.925773 
L 966.663625 273.912915 
L 975.983375 273.623621 
L 985.303125 273.347185 
" clip-path="url(#p861e2a011b)" style="fill: none; stroke: #f0ad4e; stroke-linecap: square"/>
   </g>
   <g id="line2d_15">
    <path d="M 53.328125 273.99006 
L 985.303125 273.99006 
" clip-path="url(#p861e2a011b)" style="fill: none; stroke: #dedede; stroke-width: 2; stroke-linecap: square"/>
   </g>
   <g id="text_17">
    <!-- FastQC: Per Sequence GC Content -->
    <g transform="translate(382.679375 19.3575) scale(0.16 -0.16)">
     <defs>
      <path id="DejaVuSans-46" d="M 628 4666 
L 3309 4666 
L 3309 4134 
L 1259 4134 
L 1259 2759 
L 3109 2759 
L 3109 2228 
L 1259 2228 
L 1259 0 
L 628 0 
L 628 4666 
z
" transform="scale(0.015625)"/>
      <path id="DejaVuSans-61" d="M 2194 1759 
Q 1497 1759 1228 1600 
Q 959 1441 959 1056 
Q 959 750 1161 570 
Q 1363 391 1709 391 
Q 2188 391 2477 730 
Q 2766 1069 2766 1631 
L 2766 1759 
L 2194 1759 
z
M 3341 1997 
L 3341 0 
L 2766 0 
L 2766 531 
Q 2569 213 2275 61 
Q 1981 -91 1556 -91 
Q 1019 -91 701 211 
Q 384 513 384 1019 
Q 384 1609 779 1909 
Q 1175 2209 1959 2209 
L 2766 2209 
L 2766 2266 
Q 2766 2663 2505 2880 
Q 2244 3097 1772 3097 
Q 1472 3097 1187 3025 
Q 903 2953 641 2809 
L 641 3341 
Q 956 3463 1253 3523 
Q 1550 3584 1831 3584 
Q 2591 3584 2966 3190 
Q 3341 2797 3341 1997 
z
" transform="scale(0.015625)"/>
      <path id="DejaVuSans-73" d="M 2834 3397 
L 2834 2853 
Q 2591 2978 2328 3040 
Q 2066 3103 1784 3103 
Q 1356 3103 1142 2972 
Q 928 2841 928 2578 
Q 928 2378 1081 2264 
Q 1234 2150 1697 2047 
L 1894 2003 
Q 2506 1872 2764 1633 
Q 3022 1394 3022 966 
Q 3022 478 2636 193 
Q 2250 -91 1575 -91 
Q 1294 -91 989 -36 
Q 684 19 347 128 
L 347 722 
Q 666 556 975 473 
Q 1284 391 1588 391 
Q 1994 391 2212 530 
Q 2431 669 2431 922 
Q 2431 1156 2273 1281 
Q 2116 1406 1581 1522 
L 1381 1569 
Q 847 1681 609 1914 
Q 372 2147 372 2553 
Q 372 3047 722 3315 
Q 1072 3584 1716 3584 
Q 2034 3584 2315 3537 
Q 2597 3491 2834 3397 
z
" transform="scale(0.015625)"/>
      <path id="DejaVuSans-51" d="M 2522 4238 
Q 1834 4238 1429 3725 
Q 1025 3213 1025 2328 
Q 1025 1447 1429 934 
Q 1834 422 2522 422 
Q 3209 422 3611 934 
Q 4013 1447 4013 2328 
Q 4013 3213 3611 3725 
Q 3209 4238 2522 4238 
z
M 3406 84 
L 4238 -825 
L 3475 -825 
L 2784 -78 
Q 2681 -84 2626 -87 
Q 2572 -91 2522 -91 
Q 1538 -91 948 567 
Q 359 1225 359 2328 
Q 359 3434 948 4092 
Q 1538 4750 2522 4750 
Q 3503 4750 4090 4092 
Q 4678 3434 4678 2328 
Q 4678 1516 4351 937 
Q 4025 359 3406 84 
z
" transform="scale(0.015625)"/>
      <path id="DejaVuSans-3a" d="M 750 794 
L 1409 794 
L 1409 0 
L 750 0 
L 750 794 
z
M 750 3309 
L 1409 3309 
L 1409 2516 
L 750 2516 
L 750 3309 
z
" transform="scale(0.015625)"/>
      <path id="DejaVuSans-50" d="M 1259 4147 
L 1259 2394 
L 2053 2394 
Q 2494 2394 2734 2622 
Q 2975 2850 2975 3272 
Q 2975 3691 2734 3919 
Q 2494 4147 2053 4147 
L 1259 4147 
z
M 628 4666 
L 2053 4666 
Q 2838 4666 3239 4311 
Q 3641 3956 3641 3272 
Q 3641 2581 3239 2228 
Q 2838 1875 2053 1875 
L 1259 1875 
L 1259 0 
L 628 0 
L 628 4666 
z
" transform="scale(0.015625)"/>
      <path id="DejaVuSans-65" d="M 3597 1894 
L 3597 1613 
L 953 1613 
Q 991 1019 1311 708 
Q 1631 397 2203 397 
Q 2534 397 2845 478 
Q 3156 559 3463 722 
L 3463 178 
Q 3153 47 2828 -22 
Q 2503 -91 2169 -91 
Q 1331 -91 842 396 
Q 353 884 353 1716 
Q 353 2575 817 3079 
Q 1281 3584 2069 3584 
Q 2775 3584 3186 3129 
Q 3597 2675 3597 1894 
z
M 3022 2063 
Q 3016 2534 2758 2815 
Q 2500 3097 2075 3097 
Q 1594 3097 1305 2825 
Q 1016 2553 972 2059 
L 3022 2063 
z
" transform="scale(0.015625)"/>
      <path id="DejaVuSans-72" d="M 2631 2963 
Q 2534 3019 2420 3045 
Q 2306 3072 2169 3072 
Q 1681 3072 1420 2755 
Q 1159 2438 1159 1844 
L 1159 0 
L 581 0 
L 581 3500 
L 1159 3500 
L 1159 2956 
Q 1341 3275 1631 3429 
Q 1922 3584 2338 3584 
Q 2397 3584 2469 3576 
Q 2541 3569 2628 3553 
L 2631 2963 
z
" transform="scale(0.015625)"/>
      <path id="DejaVuSans-53" d="M 3425 4513 
L 3425 3897 
Q 3066 4069 2747 4153 
Q 2428 4238 2131 4238 
Q 1616 4238 1336 4038 
Q 1056 3838 1056 3469 
Q 1056 3159 1242 3001 
Q 1428 2844 1947 2747 
L 2328 2669 
Q 3034 2534 3370 2195 
Q 3706 1856 3706 1288 
Q 3706 609 3251 259 
Q 2797 -91 1919 -91 
Q 1588 -91 1214 -16 
Q 841 59 441 206 
L 441 856 
Q 825 641 1194 531 
Q 1563 422 1919 422 
Q 2459 422 2753 634 
Q 3047 847 3047 1241 
Q 3047 1584 2836 1778 
Q 2625 1972 2144 2069 
L 1759 2144 
Q 1053 2284 737 2584 
Q 422 2884 422 3419 
Q 422 4038 858 4394 
Q 1294 4750 2059 4750 
Q 2388 4750 2728 4690 
Q 3069 4631 3425 4513 
z
" transform="scale(0.015625)"/>
      <path id="DejaVuSans-71" d="M 947 1747 
Q 947 1113 1208 752 
Q 1469 391 1925 391 
Q 2381 391 2643 752 
Q 2906 1113 2906 1747 
Q 2906 2381 2643 2742 
Q 2381 3103 1925 3103 
Q 1469 3103 1208 2742 
Q 947 2381 947 1747 
z
M 2906 525 
Q 2725 213 2448 61 
Q 2172 -91 1784 -91 
Q 1150 -91 751 415 
Q 353 922 353 1747 
Q 353 2572 751 3078 
Q 1150 3584 1784 3584 
Q 2172 3584 2448 3432 
Q 2725 3281 2906 2969 
L 2906 3500 
L 3481 3500 
L 3481 -1331 
L 2906 -1331 
L 2906 525 
z
" transform="scale(0.015625)"/>
      <path id="DejaVuSans-63" d="M 3122 3366 
L 3122 2828 
Q 2878 2963 2633 3030 
Q 2388 3097 2138 3097 
Q 1578 3097 1268 2742 
Q 959 2388 959 1747 
Q 959 1106 1268 751 
Q 1578 397 2138 397 
Q 2388 397 2633 464 
Q 2878 531 3122 666 
L 3122 134 
Q 2881 22 2623 -34 
Q 2366 -91 2075 -91 
Q 1284 -91 818 406 
Q 353 903 353 1747 
Q 353 2603 823 3093 
Q 1294 3584 2113 3584 
Q 2378 3584 2631 3529 
Q 2884 3475 3122 3366 
z
" transform="scale(0.015625)"/>
     </defs>
     <use xlink:href="#DejaVuSans-46"/>
     <use xlink:href="#DejaVuSans-61" x="48.394531"/>
     <use xlink:href="#DejaVuSans-73" x="109.673828"/>
     <use xlink:href="#DejaVuSans-74" x="161.773438"/>
     <use xlink:href="#DejaVuSans-51" x="200.982422"/>
     <use xlink:href="#DejaVuSans-43" x="279.693359"/>
     <use xlink:href="#DejaVuSans-3a" x="349.517578"/>
     <use xlink:href="#DejaVuSans-20" x="383.208984"/>
     <use xlink:href="#DejaVuSans-50" x="414.996094"/>
     <use xlink:href="#DejaVuSans-65" x="471.673828"/>
     <use xlink:href="#DejaVuSans-72" x="533.197266"/>
     <use xlink:href="#DejaVuSans-20" x="574.310547"/>
     <use xlink:href="#DejaVuSans-53" x="606.097656"/>
     <use xlink:href="#DejaVuSans-65" x="669.574219"/>
     <use xlink:href="#DejaVuSans-71" x="731.097656"/>
     <use xlink:href="#DejaVuSans-75" x="794.574219"/>
     <use xlink:href="#DejaVuSans-65" x="857.953125"/>
     <use xlink:href="#DejaVuSans-6e" x="919.476562"/>
     <use xlink:href="#DejaVuSans-63" x="982.855469"/>
     <use xlink:href="#DejaVuSans-65" x="1037.835938"/>
     <use xlink:href="#DejaVuSans-20" x="1099.359375"/>
     <use xlink:href="#DejaVuSans-47" x="1131.146484"/>
     <use xlink:href="#DejaVuSans-43" x="1208.636719"/>
     <use xlink:href="#DejaVuSans-20" x="1278.460938"/>
     <use xlink:href="#DejaVuSans-43" x="1310.248047"/>
     <use xlink:href="#DejaVuSans-6f" x="1380.072266"/>
     <use xlink:href="#DejaVuSans-6e" x="1441.253906"/>
     <use xlink:href="#DejaVuSans-74" x="1504.632812"/>
     <use xlink:href="#DejaVuSans-65" x="1543.841797"/>
     <use xlink:href="#DejaVuSans-6e" x="1605.365234"/>
     <use xlink:href="#DejaVuSans-74" x="1668.744141"/>
    </g>
   </g>
   <g id="legend_1">
    <g id="line2d_16">
     <path d="M 60.528125 303.490394 
L 68.528125 303.490394 
L 76.528125 303.490394 
" style="fill: none; stroke: #5cb85c; stroke-linecap: square"/>
    </g>
    <g id="text_18">
     <!-- Sample_X_1 -->
     <g transform="translate(82.928125 306.290394) scale(0.08 -0.08)">
      <defs>
       <path id="DejaVuSans-6d" d="M 3328 2828 
Q 3544 3216 3844 3400 
Q 4144 3584 4550 3584 
Q 5097 3584 5394 3201 
Q 5691 2819 5691 2113 
L 5691 0 
L 5113 0 
L 5113 2094 
Q 5113 2597 4934 2840 
Q 4756 3084 4391 3084 
Q 3944 3084 3684 2787 
Q 3425 2491 3425 1978 
L 3425 0 
L 2847 0 
L 2847 2094 
Q 2847 2600 2669 2842 
Q 2491 3084 2119 3084 
Q 1678 3084 1418 2786 
Q 1159 2488 1159 1978 
L 1159 0 
L 581 0 
L 581 3500 
L 1159 3500 
L 1159 2956 
Q 1356 3278 1631 3431 
Q 1906 3584 2284 3584 
Q 2666 3584 2933 3390 
Q 3200 3197 3328 2828 
z
" transform="scale(0.015625)"/>
       <path id="DejaVuSans-70" d="M 1159 525 
L 1159 -1331 
L 581 -1331 
L 581 3500 
L 1159 3500 
L 1159 2969 
Q 1341 3281 1617 3432 
Q 1894 3584 2278 3584 
Q 2916 3584 3314 3078 
Q 3713 2572 3713 1747 
Q 3713 922 3314 415 
Q 2916 -91 2278 -91 
Q 1894 -91 1617 61 
Q 1341 213 1159 525 
z
M 3116 1747 
Q 3116 2381 2855 2742 
Q 2594 3103 2138 3103 
Q 1681 3103 1420 2742 
Q 1159 2381 1159 1747 
Q 1159 1113 1420 752 
Q 1681 391 2138 391 
Q 2594 391 2855 752 
Q 3116 1113 3116 1747 
z
" transform="scale(0.015625)"/>
       <path id="DejaVuSans-6c" d="M 603 4863 
L 1178 4863 
L 1178 0 
L 603 0 
L 603 4863 
z
" transform="scale(0.015625)"/>
       <path id="DejaVuSans-5f" d="M 3263 -1063 
L 3263 -1509 
L -63 -1509 
L -63 -1063 
L 3263 -1063 
z
" transform="scale(0.015625)"/>
       <path id="DejaVuSans-58" d="M 403 4666 
L 1081 4666 
L 2241 2931 
L 3406 4666 
L 4084 4666 
L 2584 2425 
L 4184 0 
L 3506 0 
L 2194 1984 
L 872 0 
L 191 0 
L 1856 2491 
L 403 4666 
z
" transform="scale(0.015625)"/>
      </defs>
      <use xlink:href="#DejaVuSans-53"/>
      <use xlink:href="#DejaVuSans-61" x="63.476562"/>
      <use xlink:href="#DejaVuSans-6d" x="124.755859"/>
      <use xlink:href="#DejaVuSans-70" x="222.167969"/>
      <use xlink:href="#DejaVuSans-6c" x="285.644531"/>
      <use xlink:href="#DejaVuSans-65" x="313.427734"/>
      <use xlink:href="#DejaVuSans-5f" x="374.951172"/>
      <use xlink:href="#DejaVuSans-58" x="424.951172"/>
      <use xlink:href="#DejaVuSans-5f" x="493.457031"/>
      <use xlink:href="#DejaVuSans-31" x="543.457031"/>
     </g>
    </g>
    <g id="line2d_17">
     <path d="M 60.528125 315.455394 
L 68.528125 315.455394 
L 76.528125 315.455394 
" style="fill: none; stroke: #d9534f; stroke-linecap: square"/>
    </g>
    <g id="text_19">
     <!-- Sample_X_2 -->
     <g transform="translate(82.928125 318.255394) scale(0.08 -0.08)">
      <use xlink:href="#DejaVuSans-53"/>
      <use xlink:href="#DejaVuSans-61" x="63.476562"/>
      <use xlink:href="#DejaVuSans-6d" x="124.755859"/>
      <use xlink:href="#DejaVuSans-70" x="222.167969"/>
      <use xlink:href="#DejaVuSans-6c" x="285.644531"/>
      <use xlink:href="#DejaVuSans-65" x="313.427734"/>
      <use xlink:href="#DejaVuSans-5f" x="374.951172"/>
      <use xlink:href="#DejaVuSans-58" x="424.951172"/>
      <use xlink:href="#DejaVuSans-5f" x="493.457031"/>
      <use xlink:href="#DejaVuSans-32" x="543.457031"/>
     </g>
    </g>
    <g id="line2d_18">
     <path d="M 272.77375 303.490394 
L 280.77375 303.490394 
L 288.77375 303.490394 
" style="fill: none; stroke: #5cb85c; stroke-linecap: square"/>
    </g>
    <g id="text_20">
     <!-- Sample_Y_1 -->
     <g transform="translate(295.17375 306.290394) scale(0.08 -0.08)">
      <defs>
       <path id="DejaVuSans-59" d="M -13 4666 
L 666 4666 
L 1959 2747 
L 3244 4666 
L 3922 4666 
L 2272 2222 
L 2272 0 
L 1638 0 
L 1638 2222 
L -13 4666 
z
" transform="scale(0.015625)"/>
      </defs>
      <use xlink:href="#DejaVuSans-53"/>
      <use xlink:href="#DejaVuSans-61" x="63.476562"/>
      <use xlink:href="#DejaVuSans-6d" x="124.755859"/>
      <use xlink:href="#DejaVuSans-70" x="222.167969"/>
      <use xlink:href="#DejaVuSans-6c" x="285.644531"/>
      <use xlink:href="#DejaVuSans-65" x="313.427734"/>
      <use xlink:href="#DejaVuSans-5f" x="374.951172"/>
      <use xlink:href="#DejaVuSans-59" x="424.951172"/>
      <use xlink:href="#DejaVuSans-5f" x="486.035156"/>
      <use xlink:href="#DejaVuSans-31" x="536.035156"/>
     </g>
    </g>
    <g id="line2d_19">
     <path d="M 484.425625 303.490394 
L 492.425625 303.490394 
L 500.425625 303.490394 
" style="fill: none; stroke: #d9534f; stroke-linecap: square"/>
    </g>
    <g id="text_21">
     <!-- Sample_Y_2 -->
     <g transform="translate(506.825625 306.290394) scale(0.08 -0.08)">
      <use xlink:href="#DejaVuSans-53"/>
      <use xlink:href="#DejaVuSans-61" x="63.476562"/>
      <use xlink:href="#DejaVuSans-6d" x="124.755859"/>
      <use xlink:href="#DejaVuSans-70" x="222.167969"/>
      <use xlink:href="#DejaVuSans-6c" x="285.644531"/>
      <use xlink:href="#DejaVuSans-65" x="313.427734"/>
      <use xlink:href="#DejaVuSans-5f" x="374.951172"/>
      <use xlink:href="#DejaVuSans-59" x="424.951172"/>
      <use xlink:href="#DejaVuSans-5f" x="486.035156"/>
      <use xlink:href="#DejaVuSans-32" x="536.035156"/>
     </g>
    </g>
    <g id="line2d_20">
     <path d="M 696.0775 303.490394 
L 704.0775 303.490394 
L 712.0775 303.490394 
" style="fill: none; stroke: #5cb85c; stroke-linecap: square"/>
    </g>
    <g id="text_22">
     <!-- Sample_Y_3 -->
     <g transform="translate(718.4775 306.290394) scale(0.08 -0.08)">
      <defs>
       <path id="DejaVuSans-33" d="M 2597 2516 
Q 3050 2419 3304 2112 
Q 3559 1806 3559 1356 
Q 3559 666 3084 287 
Q 2609 -91 1734 -91 
Q 1441 -91 1130 -33 
Q 819 25 488 141 
L 488 750 
Q 750 597 1062 519 
Q 1375 441 1716 441 
Q 2309 441 2620 675 
Q 2931 909 2931 1356 
Q 2931 1769 2642 2001 
Q 2353 2234 1838 2234 
L 1294 2234 
L 1294 2753 
L 1863 2753 
Q 2328 2753 2575 2939 
Q 2822 3125 2822 3475 
Q 2822 3834 2567 4026 
Q 2313 4219 1838 4219 
Q 1578 4219 1281 4162 
Q 984 4106 628 3988 
L 628 4550 
Q 988 4650 1302 4700 
Q 1616 4750 1894 4750 
Q 2613 4750 3031 4423 
Q 3450 4097 3450 3541 
Q 3450 3153 3228 2886 
Q 3006 2619 2597 2516 
z
" transform="scale(0.015625)"/>
      </defs>
      <use xlink:href="#DejaVuSans-53"/>
      <use xlink:href="#DejaVuSans-61" x="63.476562"/>
      <use xlink:href="#DejaVuSans-6d" x="124.755859"/>
      <use xlink:href="#DejaVuSans-70" x="222.167969"/>
      <use xlink:href="#DejaVuSans-6c" x="285.644531"/>
      <use xlink:href="#DejaVuSans-65" x="313.427734"/>
      <use xlink:href="#DejaVuSans-5f" x="374.951172"/>
      <use xlink:href="#DejaVuSans-59" x="424.951172"/>
      <use xlink:href="#DejaVuSans-5f" x="486.035156"/>
      <use xlink:href="#DejaVuSans-33" x="536.035156"/>
     </g>
    </g>
    <g id="line2d_21">
     <path d="M 907.729375 303.490394 
L 915.729375 303.490394 
L 923.729375 303.490394 
" style="fill: none; stroke: #f0ad4e; stroke-linecap: square"/>
    </g>
    <g id="text_23">
     <!-- Sample_Y_4 -->
     <g transform="translate(930.129375 306.290394) scale(0.08 -0.08)">
      <use xlink:href="#DejaVuSans-53"/>
      <use xlink:href="#DejaVuSans-61" x="63.476562"/>
      <use xlink:href="#DejaVuSans-6d" x="124.755859"/>
      <use xlink:href="#DejaVuSans-70" x="222.167969"/>
      <use xlink:href="#DejaVuSans-6c" x="285.644531"/>
      <use xlink:href="#DejaVuSans-65" x="313.427734"/>
      <use xlink:href="#DejaVuSans-5f" x="374.951172"/>
      <use xlink:href="#DejaVuSans-59" x="424.951172"/>
      <use xlink:href="#DejaVuSans-5f" x="486.035156"/>
      <use xlink:href="#DejaVuSans-34" x="536.035156"/>
     </g>
    </g>
   </g>
  </g>
 </g>
 <defs>
  <clipPath id="p861e2a011b">
   <rect x="53.328125" y="31.48286" width="931.975" height="242.5072"/>
  </clipPath>
 </defs>
</svg>
