<?xml version="1.0" encoding="utf-8" standalone="no"?>
<!DOCTYPE svg PUBLIC "-//W3C//DTD SVG 1.1//EN"
  "http://www.w3.org/Graphics/SVG/1.1/DTD/svg11.dtd">
<svg xmlns:xlink="http://www.w3.org/1999/xlink" width="1000.298125pt" height="330.541644pt" viewBox="0 0 1000.298125 330.541644" xmlns="http://www.w3.org/2000/svg" version="1.1">
 <metadata>
  <rdf:RDF xmlns:dc="http://purl.org/dc/elements/1.1/" xmlns:cc="http://creativecommons.org/ns#" xmlns:rdf="http://www.w3.org/1999/02/22-rdf-syntax-ns#">
   <cc:Work>
    <dc:type rdf:resource="http://purl.org/dc/dcmitype/StillImage"/>
    <dc:date>2023-07-05T13:31:52.842165</dc:date>
    <dc:format>image/svg+xml</dc:format>
    <dc:creator>
     <cc:Agent>
      <dc:title>Matplotlib v3.6.2, https://matplotlib.org/</dc:title>
     </cc:Agent>
    </dc:creator>
   </cc:Work>
  </rdf:RDF>
 </metadata>
 <defs>
  <style type="text/css">*{stroke-linejoin: round; stroke-linecap: butt}</style>
 </defs>
 <g id="figure_1">
  <g id="axes_1">
   <g id="patch_1">
    <path d="M 32.968125 273.99006 
L 985.463125 273.99006 
L 985.463125 31.48286 
L 32.968125 31.48286 
z
" style="fill: #ffffff"/>
   </g>
   <g id="matplotlib.axis_1">
    <g id="xtick_1">
     <g id="text_1">
      <!-- 0 -->
      <g transform="translate(30.423125 287.06881) scale(0.08 -0.08)">
       <defs>
        <path id="DejaVuSans-30" d="M 2034 4250 
Q 1547 4250 1301 3770 
Q 1056 3291 1056 2328 
Q 1056 1369 1301 889 
Q 1547 409 2034 409 
Q 2525 409 2770 889 
Q 3016 1369 3016 2328 
Q 3016 3291 2770 3770 
Q 2525 4250 2034 4250 
z
M 2034 4750 
Q 2819 4750 3233 4129 
Q 3647 3509 3647 2328 
Q 3647 1150 3233 529 
Q 2819 -91 2034 -91 
Q 1250 -91 836 529 
Q 422 1150 422 2328 
Q 422 3509 836 4129 
Q 1250 4750 2034 4750 
z
" transform="scale(0.015625)"/>
       </defs>
       <use xlink:href="#DejaVuSans-30"/>
      </g>
     </g>
    </g>
    <g id="xtick_2">
     <g id="text_2">
      <!-- 20 -->
      <g transform="translate(218.377125 287.06881) scale(0.08 -0.08)">
       <defs>
        <path id="DejaVuSans-32" d="M 1228 531 
L 3431 531 
L 3431 0 
L 469 0 
L 469 531 
Q 828 903 1448 1529 
Q 2069 2156 2228 2338 
Q 2531 2678 2651 2914 
Q 2772 3150 2772 3378 
Q 2772 3750 2511 3984 
Q 2250 4219 1831 4219 
Q 1534 4219 1204 4116 
Q 875 4013 500 3803 
L 500 4441 
Q 881 4594 1212 4672 
Q 1544 4750 1819 4750 
Q 2544 4750 2975 4387 
Q 3406 4025 3406 3419 
Q 3406 3131 3298 2873 
Q 3191 2616 2906 2266 
Q 2828 2175 2409 1742 
Q 1991 1309 1228 531 
z
" transform="scale(0.015625)"/>
       </defs>
       <use xlink:href="#DejaVuSans-32"/>
       <use xlink:href="#DejaVuSans-30" x="63.623047"/>
      </g>
     </g>
    </g>
    <g id="xtick_3">
     <g id="text_3">
      <!-- 40 -->
      <g transform="translate(408.876125 287.06881) scale(0.08 -0.08)">
       <defs>
        <path id="DejaVuSans-34" d="M 2419 4116 
L 825 1625 
L 2419 1625 
L 2419 4116 
z
M 2253 4666 
L 3047 4666 
L 3047 1625 
L 3713 1625 
L 3713 1100 
L 3047 1100 
L 3047 0 
L 2419 0 
L 2419 1100 
L 313 1100 
L 313 1709 
L 2253 4666 
z
" transform="scale(0.015625)"/>
       </defs>
       <use xlink:href="#DejaVuSans-34"/>
       <use xlink:href="#DejaVuSans-30" x="63.623047"/>
      </g>
     </g>
    </g>
    <g id="xtick_4">
     <g id="text_4">
      <!-- 60 -->
      <g transform="translate(599.375125 287.06881) scale(0.08 -0.08)">
       <defs>
        <path id="DejaVuSans-36" d="M 2113 2584 
Q 1688 2584 1439 2293 
Q 1191 2003 1191 1497 
Q 1191 994 1439 701 
Q 1688 409 2113 409 
Q 2538 409 2786 701 
Q 3034 994 3034 1497 
Q 3034 2003 2786 2293 
Q 2538 2584 2113 2584 
z
M 3366 4563 
L 3366 3988 
Q 3128 4100 2886 4159 
Q 2644 4219 2406 4219 
Q 1781 4219 1451 3797 
Q 1122 3375 1075 2522 
Q 1259 2794 1537 2939 
Q 1816 3084 2150 3084 
Q 2853 3084 3261 2657 
Q 3669 2231 3669 1497 
Q 3669 778 3244 343 
Q 2819 -91 2113 -91 
Q 1303 -91 875 529 
Q 447 1150 447 2328 
Q 447 3434 972 4092 
Q 1497 4750 2381 4750 
Q 2619 4750 2861 4703 
Q 3103 4656 3366 4563 
z
" transform="scale(0.015625)"/>
       </defs>
       <use xlink:href="#DejaVuSans-36"/>
       <use xlink:href="#DejaVuSans-30" x="63.623047"/>
      </g>
     </g>
    </g>
    <g id="xtick_5">
     <g id="text_5">
      <!-- 80 -->
      <g transform="translate(789.874125 287.06881) scale(0.08 -0.08)">
       <defs>
        <path id="DejaVuSans-38" d="M 2034 2216 
Q 1584 2216 1326 1975 
Q 1069 1734 1069 1313 
Q 1069 891 1326 650 
Q 1584 409 2034 409 
Q 2484 409 2743 651 
Q 3003 894 3003 1313 
Q 3003 1734 2745 1975 
Q 2488 2216 2034 2216 
z
M 1403 2484 
Q 997 2584 770 2862 
Q 544 3141 544 3541 
Q 544 4100 942 4425 
Q 1341 4750 2034 4750 
Q 2731 4750 3128 4425 
Q 3525 4100 3525 3541 
Q 3525 3141 3298 2862 
Q 3072 2584 2669 2484 
Q 3125 2378 3379 2068 
Q 3634 1759 3634 1313 
Q 3634 634 3220 271 
Q 2806 -91 2034 -91 
Q 1263 -91 848 271 
Q 434 634 434 1313 
Q 434 1759 690 2068 
Q 947 2378 1403 2484 
z
M 1172 3481 
Q 1172 3119 1398 2916 
Q 1625 2713 2034 2713 
Q 2441 2713 2670 2916 
Q 2900 3119 2900 3481 
Q 2900 3844 2670 4047 
Q 2441 4250 2034 4250 
Q 1625 4250 1398 4047 
Q 1172 3844 1172 3481 
z
" transform="scale(0.015625)"/>
       </defs>
       <use xlink:href="#DejaVuSans-38"/>
       <use xlink:href="#DejaVuSans-30" x="63.623047"/>
      </g>
     </g>
    </g>
    <g id="xtick_6">
     <g id="text_6">
      <!-- 100 -->
      <g transform="translate(977.828125 287.06881) scale(0.08 -0.08)">
       <defs>
        <path id="DejaVuSans-31" d="M 794 531 
L 1825 531 
L 1825 4091 
L 703 3866 
L 703 4441 
L 1819 4666 
L 2450 4666 
L 2450 531 
L 3481 531 
L 3481 0 
L 794 0 
L 794 531 
z
" transform="scale(0.015625)"/>
       </defs>
       <use xlink:href="#DejaVuSans-31"/>
       <use xlink:href="#DejaVuSans-30" x="63.623047"/>
       <use xlink:href="#DejaVuSans-30" x="127.246094"/>
      </g>
     </g>
    </g>
    <g id="text_7">
     <!-- % GC -->
     <g transform="translate(495.510156 300.330997) scale(0.1 -0.1)">
      <defs>
       <path id="DejaVuSans-25" d="M 4653 2053 
Q 4381 2053 4226 1822 
Q 4072 1591 4072 1178 
Q 4072 772 4226 539 
Q 4381 306 4653 306 
Q 4919 306 5073 539 
Q 5228 772 5228 1178 
Q 5228 1588 5073 1820 
Q 4919 2053 4653 2053 
z
M 4653 2450 
Q 5147 2450 5437 2106 
Q 5728 1763 5728 1178 
Q 5728 594 5436 251 
Q 5144 -91 4653 -91 
Q 4153 -91 3862 251 
Q 3572 594 3572 1178 
Q 3572 1766 3864 2108 
Q 4156 2450 4653 2450 
z
M 1428 4353 
Q 1159 4353 1004 4120 
Q 850 3888 850 3481 
Q 850 3069 1003 2837 
Q 1156 2606 1428 2606 
Q 1700 2606 1854 2837 
Q 2009 3069 2009 3481 
Q 2009 3884 1853 4118 
Q 1697 4353 1428 4353 
z
M 4250 4750 
L 4750 4750 
L 1831 -91 
L 1331 -91 
L 4250 4750 
z
M 1428 4750 
Q 1922 4750 2215 4408 
Q 2509 4066 2509 3481 
Q 2509 2891 2217 2550 
Q 1925 2209 1428 2209 
Q 931 2209 642 2551 
Q 353 2894 353 3481 
Q 353 4063 643 4406 
Q 934 4750 1428 4750 
z
" transform="scale(0.015625)"/>
       <path id="DejaVuSans-20" transform="scale(0.015625)"/>
       <path id="DejaVuSans-47" d="M 3809 666 
L 3809 1919 
L 2778 1919 
L 2778 2438 
L 4434 2438 
L 4434 434 
Q 4069 175 3628 42 
Q 3188 -91 2688 -91 
Q 1594 -91 976 548 
Q 359 1188 359 2328 
Q 359 3472 976 4111 
Q 1594 4750 2688 4750 
Q 3144 4750 3555 4637 
Q 3966 4525 4313 4306 
L 4313 3634 
Q 3963 3931 3569 4081 
Q 3175 4231 2741 4231 
Q 1884 4231 1454 3753 
Q 1025 3275 1025 2328 
Q 1025 1384 1454 906 
Q 1884 428 2741 428 
Q 3075 428 3337 486 
Q 3600 544 3809 666 
z
" transform="scale(0.015625)"/>
       <path id="DejaVuSans-43" d="M 4122 4306 
L 4122 3641 
Q 3803 3938 3442 4084 
Q 3081 4231 2675 4231 
Q 1875 4231 1450 3742 
Q 1025 3253 1025 2328 
Q 1025 1406 1450 917 
Q 1875 428 2675 428 
Q 3081 428 3442 575 
Q 3803 722 4122 1019 
L 4122 359 
Q 3791 134 3420 21 
Q 3050 -91 2638 -91 
Q 1578 -91 968 557 
Q 359 1206 359 2328 
Q 359 3453 968 4101 
Q 1578 4750 2638 4750 
Q 3056 4750 3426 4639 
Q 3797 4528 4122 4306 
z
" transform="scale(0.015625)"/>
      </defs>
      <use xlink:href="#DejaVuSans-25"/>
      <use xlink:href="#DejaVuSans-20" x="95.019531"/>
      <use xlink:href="#DejaVuSans-47" x="126.806641"/>
      <use xlink:href="#DejaVuSans-43" x="204.296875"/>
     </g>
    </g>
   </g>
   <g id="matplotlib.axis_2">
    <g id="ytick_1">
     <g id="line2d_1">
      <path d="M 32.968125 273.99006 
L 985.463125 273.99006 
" clip-path="url(#p4d56c7e2c2)" style="fill: none; stroke: #dedede; stroke-linecap: square"/>
     </g>
     <g id="text_8">
      <!-- 0 -->
      <g transform="translate(20.878125 277.029435) scale(0.08 -0.08)">
       <use xlink:href="#DejaVuSans-30"/>
      </g>
     </g>
    </g>
    <g id="ytick_2">
     <g id="line2d_2">
      <path d="M 32.968125 224.477506 
L 985.463125 224.477506 
" clip-path="url(#p4d56c7e2c2)" style="fill: none; stroke: #dedede; stroke-linecap: square"/>
     </g>
     <g id="text_9">
      <!-- 1 -->
      <g transform="translate(20.878125 227.516881) scale(0.08 -0.08)">
       <use xlink:href="#DejaVuSans-31"/>
      </g>
     </g>
    </g>
    <g id="ytick_3">
     <g id="line2d_3">
      <path d="M 32.968125 174.964953 
L 985.463125 174.964953 
" clip-path="url(#p4d56c7e2c2)" style="fill: none; stroke: #dedede; stroke-linecap: square"/>
     </g>
     <g id="text_10">
      <!-- 2 -->
      <g transform="translate(20.878125 178.004328) scale(0.08 -0.08)">
       <use xlink:href="#DejaVuSans-32"/>
      </g>
     </g>
    </g>
    <g id="ytick_4">
     <g id="line2d_4">
      <path d="M 32.968125 125.452399 
L 985.463125 125.452399 
" clip-path="url(#p4d56c7e2c2)" style="fill: none; stroke: #dedede; stroke-linecap: square"/>
     </g>
     <g id="text_11">
      <!-- 3 -->
      <g transform="translate(20.878125 128.491774) scale(0.08 -0.08)">
       <defs>
        <path id="DejaVuSans-33" d="M 2597 2516 
Q 3050 2419 3304 2112 
Q 3559 1806 3559 1356 
Q 3559 666 3084 287 
Q 2609 -91 1734 -91 
Q 1441 -91 1130 -33 
Q 819 25 488 141 
L 488 750 
Q 750 597 1062 519 
Q 1375 441 1716 441 
Q 2309 441 2620 675 
Q 2931 909 2931 1356 
Q 2931 1769 2642 2001 
Q 2353 2234 1838 2234 
L 1294 2234 
L 1294 2753 
L 1863 2753 
Q 2328 2753 2575 2939 
Q 2822 3125 2822 3475 
Q 2822 3834 2567 4026 
Q 2313 4219 1838 4219 
Q 1578 4219 1281 4162 
Q 984 4106 628 3988 
L 628 4550 
Q 988 4650 1302 4700 
Q 1616 4750 1894 4750 
Q 2613 4750 3031 4423 
Q 3450 4097 3450 3541 
Q 3450 3153 3228 2886 
Q 3006 2619 2597 2516 
z
" transform="scale(0.015625)"/>
       </defs>
       <use xlink:href="#DejaVuSans-33"/>
      </g>
     </g>
    </g>
    <g id="ytick_5">
     <g id="line2d_5">
      <path d="M 32.968125 75.939845 
L 985.463125 75.939845 
" clip-path="url(#p4d56c7e2c2)" style="fill: none; stroke: #dedede; stroke-linecap: square"/>
     </g>
     <g id="text_12">
      <!-- 4 -->
      <g transform="translate(20.878125 78.97922) scale(0.08 -0.08)">
       <use xlink:href="#DejaVuSans-34"/>
      </g>
     </g>
    </g>
    <g id="text_13">
     <!-- Percentage -->
     <g transform="translate(14.798437 180.859116) rotate(-90) scale(0.1 -0.1)">
      <defs>
       <path id="DejaVuSans-50" d="M 1259 4147 
L 1259 2394 
L 2053 2394 
Q 2494 2394 2734 2622 
Q 2975 2850 2975 3272 
Q 2975 3691 2734 3919 
Q 2494 4147 2053 4147 
L 1259 4147 
z
M 628 4666 
L 2053 4666 
Q 2838 4666 3239 4311 
Q 3641 3956 3641 3272 
Q 3641 2581 3239 2228 
Q 2838 1875 2053 1875 
L 1259 1875 
L 1259 0 
L 628 0 
L 628 4666 
z
" transform="scale(0.015625)"/>
       <path id="DejaVuSans-65" d="M 3597 1894 
L 3597 1613 
L 953 1613 
Q 991 1019 1311 708 
Q 1631 397 2203 397 
Q 2534 397 2845 478 
Q 3156 559 3463 722 
L 3463 178 
Q 3153 47 2828 -22 
Q 2503 -91 2169 -91 
Q 1331 -91 842 396 
Q 353 884 353 1716 
Q 353 2575 817 3079 
Q 1281 3584 2069 3584 
Q 2775 3584 3186 3129 
Q 3597 2675 3597 1894 
z
M 3022 2063 
Q 3016 2534 2758 2815 
Q 2500 3097 2075 3097 
Q 1594 3097 1305 2825 
Q 1016 2553 972 2059 
L 3022 2063 
z
" transform="scale(0.015625)"/>
       <path id="DejaVuSans-72" d="M 2631 2963 
Q 2534 3019 2420 3045 
Q 2306 3072 2169 3072 
Q 1681 3072 1420 2755 
Q 1159 2438 1159 1844 
L 1159 0 
L 581 0 
L 581 3500 
L 1159 3500 
L 1159 2956 
Q 1341 3275 1631 3429 
Q 1922 3584 2338 3584 
Q 2397 3584 2469 3576 
Q 2541 3569 2628 3553 
L 2631 2963 
z
" transform="scale(0.015625)"/>
       <path id="DejaVuSans-63" d="M 3122 3366 
L 3122 2828 
Q 2878 2963 2633 3030 
Q 2388 3097 2138 3097 
Q 1578 3097 1268 2742 
Q 959 2388 959 1747 
Q 959 1106 1268 751 
Q 1578 397 2138 397 
Q 2388 397 2633 464 
Q 2878 531 3122 666 
L 3122 134 
Q 2881 22 2623 -34 
Q 2366 -91 2075 -91 
Q 1284 -91 818 406 
Q 353 903 353 1747 
Q 353 2603 823 3093 
Q 1294 3584 2113 3584 
Q 2378 3584 2631 3529 
Q 2884 3475 3122 3366 
z
" transform="scale(0.015625)"/>
       <path id="DejaVuSans-6e" d="M 3513 2113 
L 3513 0 
L 2938 0 
L 2938 2094 
Q 2938 2591 2744 2837 
Q 2550 3084 2163 3084 
Q 1697 3084 1428 2787 
Q 1159 2491 1159 1978 
L 1159 0 
L 581 0 
L 581 3500 
L 1159 3500 
L 1159 2956 
Q 1366 3272 1645 3428 
Q 1925 3584 2291 3584 
Q 2894 3584 3203 3211 
Q 3513 2838 3513 2113 
z
" transform="scale(0.015625)"/>
       <path id="DejaVuSans-74" d="M 1172 4494 
L 1172 3500 
L 2356 3500 
L 2356 3053 
L 1172 3053 
L 1172 1153 
Q 1172 725 1289 603 
Q 1406 481 1766 481 
L 2356 481 
L 2356 0 
L 1766 0 
Q 1100 0 847 248 
Q 594 497 594 1153 
L 594 3053 
L 172 3053 
L 172 3500 
L 594 3500 
L 594 4494 
L 1172 4494 
z
" transform="scale(0.015625)"/>
       <path id="DejaVuSans-61" d="M 2194 1759 
Q 1497 1759 1228 1600 
Q 959 1441 959 1056 
Q 959 750 1161 570 
Q 1363 391 1709 391 
Q 2188 391 2477 730 
Q 2766 1069 2766 1631 
L 2766 1759 
L 2194 1759 
z
M 3341 1997 
L 3341 0 
L 2766 0 
L 2766 531 
Q 2569 213 2275 61 
Q 1981 -91 1556 -91 
Q 1019 -91 701 211 
Q 384 513 384 1019 
Q 384 1609 779 1909 
Q 1175 2209 1959 2209 
L 2766 2209 
L 2766 2266 
Q 2766 2663 2505 2880 
Q 2244 3097 1772 3097 
Q 1472 3097 1187 3025 
Q 903 2953 641 2809 
L 641 3341 
Q 956 3463 1253 3523 
Q 1550 3584 1831 3584 
Q 2591 3584 2966 3190 
Q 3341 2797 3341 1997 
z
" transform="scale(0.015625)"/>
       <path id="DejaVuSans-67" d="M 2906 1791 
Q 2906 2416 2648 2759 
Q 2391 3103 1925 3103 
Q 1463 3103 1205 2759 
Q 947 2416 947 1791 
Q 947 1169 1205 825 
Q 1463 481 1925 481 
Q 2391 481 2648 825 
Q 2906 1169 2906 1791 
z
M 3481 434 
Q 3481 -459 3084 -895 
Q 2688 -1331 1869 -1331 
Q 1566 -1331 1297 -1286 
Q 1028 -1241 775 -1147 
L 775 -588 
Q 1028 -725 1275 -790 
Q 1522 -856 1778 -856 
Q 2344 -856 2625 -561 
Q 2906 -266 2906 331 
L 2906 616 
Q 2728 306 2450 153 
Q 2172 0 1784 0 
Q 1141 0 747 490 
Q 353 981 353 1791 
Q 353 2603 747 3093 
Q 1141 3584 1784 3584 
Q 2172 3584 2450 3431 
Q 2728 3278 2906 2969 
L 2906 3500 
L 3481 3500 
L 3481 434 
z
" transform="scale(0.015625)"/>
      </defs>
      <use xlink:href="#DejaVuSans-50"/>
      <use xlink:href="#DejaVuSans-65" x="56.677734"/>
      <use xlink:href="#DejaVuSans-72" x="118.201172"/>
      <use xlink:href="#DejaVuSans-63" x="157.064453"/>
      <use xlink:href="#DejaVuSans-65" x="212.044922"/>
      <use xlink:href="#DejaVuSans-6e" x="273.568359"/>
      <use xlink:href="#DejaVuSans-74" x="336.947266"/>
      <use xlink:href="#DejaVuSans-61" x="376.15625"/>
      <use xlink:href="#DejaVuSans-67" x="437.435547"/>
      <use xlink:href="#DejaVuSans-65" x="500.912109"/>
     </g>
    </g>
   </g>
   <g id="line2d_6">
    <path d="M 32.968125 273.99006 
L 42.493075 273.99006 
L 52.018025 273.983631 
L 61.542975 273.977203 
L 71.067925 273.977203 
L 80.592875 273.977203 
L 90.117825 273.983631 
L 99.642775 273.99006 
L 109.167725 273.99006 
L 118.692675 273.99006 
L 128.217625 273.93863 
L 137.742575 273.8872 
L 147.267525 273.8872 
L 156.792475 273.848628 
L 166.317425 273.810055 
L 175.842375 273.810055 
L 185.367325 273.810055 
L 194.892275 273.73291 
L 204.417225 273.655765 
L 213.942175 273.655765 
L 223.467125 273.655765 
L 232.992075 272.948603 
L 242.517025 272.24144 
L 252.041975 272.24144 
L 261.566925 272.24144 
L 271.091875 269.522079 
L 280.616825 266.802719 
L 290.141775 266.802719 
L 299.666725 266.802719 
L 309.191675 257.513176 
L 318.716625 248.223634 
L 328.241575 248.223634 
L 337.766525 248.223634 
L 347.291475 228.480946 
L 356.816425 208.738257 
L 366.341375 208.738257 
L 375.866325 208.738257 
L 385.391275 179.243157 
L 394.916225 149.748056 
L 404.441175 149.748056 
L 413.966125 118.292187 
L 423.491075 86.836318 
L 433.016025 86.836318 
L 442.540975 86.836318 
L 452.065925 64.93357 
L 461.590875 43.030822 
L 471.115825 43.030822 
L 480.640775 43.030822 
L 490.165725 44.953018 
L 499.690675 46.875214 
L 509.215625 46.875214 
L 518.740575 46.875214 
L 528.265525 68.520812 
L 537.790475 90.16641 
L 547.315425 90.16641 
L 556.840375 90.16641 
L 566.365325 120.137238 
L 575.890275 150.108066 
L 585.415225 150.108066 
L 594.940175 150.108066 
L 604.465125 178.34956 
L 613.990075 206.591055 
L 623.515025 206.591055 
L 633.039975 226.04445 
L 642.564925 245.497844 
L 652.089875 245.497844 
L 661.614825 245.497844 
L 671.139775 255.057394 
L 680.664725 264.616944 
L 690.189675 264.616944 
L 699.714625 264.616944 
L 709.239575 268.197757 
L 718.764525 271.77857 
L 728.289475 271.77857 
L 737.814425 271.77857 
L 747.339375 272.685024 
L 756.864325 273.591478 
L 766.389275 273.591478 
L 775.914225 273.591478 
L 785.439175 273.758625 
L 794.964125 273.925773 
L 804.489075 273.925773 
L 814.014025 273.925773 
L 823.538975 273.93863 
L 833.063925 273.951488 
L 842.588875 273.951488 
L 852.113825 273.951488 
L 861.638775 273.970774 
L 871.163725 273.99006 
L 880.688675 273.99006 
L 890.213625 273.983631 
L 899.738575 273.977203 
L 909.263525 273.977203 
L 918.788475 273.977203 
L 928.313425 273.983631 
L 937.838375 273.99006 
L 947.363325 273.99006 
L 956.888275 273.99006 
L 966.413225 273.99006 
L 975.938175 273.99006 
L 985.463125 273.99006 
" clip-path="url(#p4d56c7e2c2)" style="fill: none; stroke: #5cb85c; stroke-linecap: square"/>
   </g>
   <g id="line2d_7">
    <path d="M 32.968125 273.767603 
L 42.493075 273.433917 
L 52.018025 272.076927 
L 61.542975 271.498538 
L 71.067925 271.365063 
L 80.592875 270.675446 
L 90.117825 270.564217 
L 99.642775 270.275022 
L 109.167725 269.807862 
L 118.692675 269.474176 
L 128.217625 269.318456 
L 137.742575 269.229473 
L 147.267525 268.918033 
L 156.792475 268.673329 
L 166.317425 268.717821 
L 175.842375 268.584347 
L 185.367325 267.650026 
L 194.892275 266.248544 
L 204.417225 264.557869 
L 213.942175 263.823759 
L 223.467125 264.112954 
L 232.992075 262.889439 
L 242.517025 260.197705 
L 252.041975 257.439234 
L 261.566925 254.658517 
L 271.091875 253.056824 
L 280.616825 248.629923 
L 290.141775 241.933957 
L 299.666725 237.929724 
L 309.191675 232.590748 
L 318.716625 228.875711 
L 328.241575 226.806857 
L 337.766525 219.754959 
L 347.291475 213.348188 
L 356.816425 208.409635 
L 366.341375 201.224263 
L 375.866325 196.686133 
L 385.391275 188.610931 
L 394.916225 176.086583 
L 404.441175 167.811169 
L 413.966125 164.852487 
L 423.491075 161.76033 
L 433.016025 154.374746 
L 442.540975 142.628998 
L 452.065925 131.884308 
L 461.590875 123.542158 
L 471.115825 114.621618 
L 480.640775 106.034765 
L 490.165725 97.759352 
L 499.690675 92.531604 
L 509.215625 90.863174 
L 518.740575 90.640717 
L 528.265525 91.107877 
L 537.790475 90.529488 
L 547.315425 87.237119 
L 556.840375 86.947925 
L 566.365325 88.994532 
L 575.890275 87.415085 
L 585.415225 100.473331 
L 594.940175 128.369482 
L 604.465125 141.3165 
L 613.990075 156.977497 
L 623.515025 182.092931 
L 633.039975 198.688249 
L 642.564925 215.639499 
L 652.089875 234.570619 
L 661.614825 247.428653 
L 671.139775 253.39051 
L 680.664725 258.217834 
L 690.189675 262.400032 
L 699.714625 263.979479 
L 709.239575 265.247486 
L 718.764525 266.826934 
L 728.289475 267.761254 
L 737.814425 268.940278 
L 747.339375 270.208285 
L 756.864325 270.875657 
L 766.389275 270.875657 
L 775.914225 271.053623 
L 785.439175 271.409555 
L 794.964125 271.632012 
L 804.489075 272.01019 
L 814.014025 272.432859 
L 823.538975 272.499596 
L 833.063925 272.744299 
L 842.588875 273.144722 
L 852.113825 273.011248 
L 861.638775 272.855528 
L 871.163725 273.278196 
L 880.688675 273.456162 
L 890.213625 273.367179 
L 899.738575 273.433917 
L 909.263525 273.567391 
L 918.788475 273.611883 
L 928.313425 273.478408 
L 937.838375 273.278196 
L 947.363325 273.189214 
L 956.888275 273.278196 
L 966.413225 273.100231 
L 975.938175 269.007015 
L 985.463125 265.180749 
" clip-path="url(#p4d56c7e2c2)" style="fill: none; stroke: #d9534f; stroke-linecap: square"/>
   </g>
   <g id="line2d_8">
    <path d="M 32.968125 273.99006 
L 42.493075 273.99006 
L 52.018025 273.983631 
L 61.542975 273.977203 
L 71.067925 273.977203 
L 80.592875 273.977203 
L 90.117825 273.983631 
L 99.642775 273.99006 
L 109.167725 273.99006 
L 118.692675 273.99006 
L 128.217625 273.93863 
L 137.742575 273.8872 
L 147.267525 273.8872 
L 156.792475 273.848628 
L 166.317425 273.810055 
L 175.842375 273.810055 
L 185.367325 273.810055 
L 194.892275 273.73291 
L 204.417225 273.655765 
L 213.942175 273.655765 
L 223.467125 273.655765 
L 232.992075 272.948603 
L 242.517025 272.24144 
L 252.041975 272.24144 
L 261.566925 272.24144 
L 271.091875 269.522079 
L 280.616825 266.802719 
L 290.141775 266.802719 
L 299.666725 266.802719 
L 309.191675 257.513176 
L 318.716625 248.223634 
L 328.241575 248.223634 
L 337.766525 248.223634 
L 347.291475 228.480946 
L 356.816425 208.738257 
L 366.341375 208.738257 
L 375.866325 208.738257 
L 385.391275 179.243157 
L 394.916225 149.748056 
L 404.441175 149.748056 
L 413.966125 118.292187 
L 423.491075 86.836318 
L 433.016025 86.836318 
L 442.540975 86.836318 
L 452.065925 64.93357 
L 461.590875 43.030822 
L 471.115825 43.030822 
L 480.640775 43.030822 
L 490.165725 44.953018 
L 499.690675 46.875214 
L 509.215625 46.875214 
L 518.740575 46.875214 
L 528.265525 68.520812 
L 537.790475 90.16641 
L 547.315425 90.16641 
L 556.840375 90.16641 
L 566.365325 120.137238 
L 575.890275 150.108066 
L 585.415225 150.108066 
L 594.940175 150.108066 
L 604.465125 178.34956 
L 613.990075 206.591055 
L 623.515025 206.591055 
L 633.039975 226.04445 
L 642.564925 245.497844 
L 652.089875 245.497844 
L 661.614825 245.497844 
L 671.139775 255.057394 
L 680.664725 264.616944 
L 690.189675 264.616944 
L 699.714625 264.616944 
L 709.239575 268.197757 
L 718.764525 271.77857 
L 728.289475 271.77857 
L 737.814425 271.77857 
L 747.339375 272.685024 
L 756.864325 273.591478 
L 766.389275 273.591478 
L 775.914225 273.591478 
L 785.439175 273.758625 
L 794.964125 273.925773 
L 804.489075 273.925773 
L 814.014025 273.925773 
L 823.538975 273.93863 
L 833.063925 273.951488 
L 842.588875 273.951488 
L 852.113825 273.951488 
L 861.638775 273.970774 
L 871.163725 273.99006 
L 880.688675 273.99006 
L 890.213625 273.983631 
L 899.738575 273.977203 
L 909.263525 273.977203 
L 918.788475 273.977203 
L 928.313425 273.983631 
L 937.838375 273.99006 
L 947.363325 273.99006 
L 956.888275 273.99006 
L 966.413225 273.99006 
L 975.938175 273.99006 
L 985.463125 273.99006 
" clip-path="url(#p4d56c7e2c2)" style="fill: none; stroke: #5cb85c; stroke-linecap: square"/>
   </g>
   <g id="line2d_9">
    <path d="M 32.968125 273.767603 
L 42.493075 273.433917 
L 52.018025 272.076927 
L 61.542975 271.498538 
L 71.067925 271.365063 
L 80.592875 270.675446 
L 90.117825 270.564217 
L 99.642775 270.275022 
L 109.167725 269.807862 
L 118.692675 269.474176 
L 128.217625 269.318456 
L 137.742575 269.229473 
L 147.267525 268.918033 
L 156.792475 268.673329 
L 166.317425 268.717821 
L 175.842375 268.584347 
L 185.367325 267.650026 
L 194.892275 266.248544 
L 204.417225 264.557869 
L 213.942175 263.823759 
L 223.467125 264.112954 
L 232.992075 262.889439 
L 242.517025 260.197705 
L 252.041975 257.439234 
L 261.566925 254.658517 
L 271.091875 253.056824 
L 280.616825 248.629923 
L 290.141775 241.933957 
L 299.666725 237.929724 
L 309.191675 232.590748 
L 318.716625 228.875711 
L 328.241575 226.806857 
L 337.766525 219.754959 
L 347.291475 213.348188 
L 356.816425 208.409635 
L 366.341375 201.224263 
L 375.866325 196.686133 
L 385.391275 188.610931 
L 394.916225 176.086583 
L 404.441175 167.811169 
L 413.966125 164.852487 
L 423.491075 161.76033 
L 433.016025 154.374746 
L 442.540975 142.628998 
L 452.065925 131.884308 
L 461.590875 123.542158 
L 471.115825 114.621618 
L 480.640775 106.034765 
L 490.165725 97.759352 
L 499.690675 92.531604 
L 509.215625 90.863174 
L 518.740575 90.640717 
L 528.265525 91.107877 
L 537.790475 90.529488 
L 547.315425 87.237119 
L 556.840375 86.947925 
L 566.365325 88.994532 
L 575.890275 87.415085 
L 585.415225 100.473331 
L 594.940175 128.369482 
L 604.465125 141.3165 
L 613.990075 156.977497 
L 623.515025 182.092931 
L 633.039975 198.688249 
L 642.564925 215.639499 
L 652.089875 234.570619 
L 661.614825 247.428653 
L 671.139775 253.39051 
L 680.664725 258.217834 
L 690.189675 262.400032 
L 699.714625 263.979479 
L 709.239575 265.247486 
L 718.764525 266.826934 
L 728.289475 267.761254 
L 737.814425 268.940278 
L 747.339375 270.208285 
L 756.864325 270.875657 
L 766.389275 270.875657 
L 775.914225 271.053623 
L 785.439175 271.409555 
L 794.964125 271.632012 
L 804.489075 272.01019 
L 814.014025 272.432859 
L 823.538975 272.499596 
L 833.063925 272.744299 
L 842.588875 273.144722 
L 852.113825 273.011248 
L 861.638775 272.855528 
L 871.163725 273.278196 
L 880.688675 273.456162 
L 890.213625 273.367179 
L 899.738575 273.433917 
L 909.263525 273.567391 
L 918.788475 273.611883 
L 928.313425 273.478408 
L 937.838375 273.278196 
L 947.363325 273.189214 
L 956.888275 273.278196 
L 966.413225 273.100231 
L 975.938175 269.007015 
L 985.463125 265.180749 
" clip-path="url(#p4d56c7e2c2)" style="fill: none; stroke: #d9534f; stroke-linecap: square"/>
   </g>
   <g id="line2d_10">
    <path d="M 32.968125 273.99006 
L 42.493075 273.99006 
L 52.018025 273.99006 
L 61.542975 273.99006 
L 71.067925 273.99006 
L 80.592875 273.99006 
L 90.117825 273.964343 
L 99.642775 273.938626 
L 109.167725 273.938626 
L 118.692675 273.938626 
L 128.217625 273.912909 
L 137.742575 273.887192 
L 147.267525 273.887192 
L 156.792475 273.681457 
L 166.317425 273.475721 
L 175.842375 273.475721 
L 185.367325 273.475721 
L 194.892275 273.527155 
L 204.417225 273.578589 
L 213.942175 273.578589 
L 223.467125 273.578589 
L 232.992075 272.39561 
L 242.517025 271.212631 
L 252.041975 271.212631 
L 261.566925 271.212631 
L 271.091875 268.692372 
L 280.616825 266.172112 
L 290.141775 266.172112 
L 299.666725 266.172112 
L 309.191675 258.5599 
L 318.716625 250.947688 
L 328.241575 250.947688 
L 337.766525 250.947688 
L 347.291475 234.231682 
L 356.816425 217.515675 
L 366.341375 217.515675 
L 375.866325 217.515675 
L 385.391275 190.255727 
L 394.916225 162.995778 
L 404.441175 162.995778 
L 413.966125 135.247207 
L 423.491075 107.498637 
L 433.016025 107.498637 
L 442.540975 107.498637 
L 452.065925 83.144701 
L 461.590875 58.790766 
L 471.115825 58.790766 
L 480.640775 58.790766 
L 490.165725 51.564308 
L 499.690675 44.33785 
L 509.215625 44.33785 
L 518.740575 44.33785 
L 528.265525 62.571155 
L 537.790475 80.80446 
L 547.315425 80.80446 
L 556.840375 80.80446 
L 566.365325 108.501597 
L 575.890275 136.198734 
L 585.415225 136.198734 
L 594.940175 136.198734 
L 604.465125 165.233151 
L 613.990075 194.267568 
L 623.515025 194.267568 
L 633.039975 214.146757 
L 642.564925 234.025946 
L 652.089875 234.025946 
L 661.614825 234.025946 
L 671.139775 246.010037 
L 680.664725 257.994128 
L 690.189675 257.994128 
L 699.714625 257.994128 
L 709.239575 264.063324 
L 718.764525 270.13252 
L 728.289475 270.13252 
L 737.814425 270.13252 
L 747.339375 271.778404 
L 756.864325 273.424287 
L 766.389275 273.424287 
L 775.914225 273.424287 
L 785.439175 273.578589 
L 794.964125 273.732891 
L 804.489075 273.732891 
L 814.014025 273.732891 
L 823.538975 273.861475 
L 833.063925 273.99006 
L 842.588875 273.99006 
L 852.113825 273.99006 
L 861.638775 273.99006 
L 871.163725 273.99006 
L 880.688675 273.99006 
L 890.213625 273.99006 
L 899.738575 273.99006 
L 909.263525 273.99006 
L 918.788475 273.99006 
L 928.313425 273.938626 
L 937.838375 273.887192 
L 947.363325 273.887192 
L 956.888275 273.887192 
L 966.413225 273.501438 
L 975.938175 273.115684 
L 985.463125 273.115684 
" clip-path="url(#p4d56c7e2c2)" style="fill: none; stroke: #5cb85c; stroke-linecap: square"/>
   </g>
   <g id="line2d_11">
    <path d="M 32.968125 273.22583 
L 42.493075 272.557129 
L 52.018025 272.557129 
L 61.542975 271.888427 
L 71.067925 270.837611 
L 80.592875 271.315255 
L 90.117825 270.837611 
L 99.642775 270.455496 
L 109.167725 270.93314 
L 118.692675 271.219726 
L 128.217625 270.359967 
L 137.742575 269.786795 
L 147.267525 269.500209 
L 156.792475 268.927036 
L 166.317425 268.353863 
L 175.842375 265.679058 
L 185.367325 263.290839 
L 194.892275 263.672954 
L 204.417225 263.099782 
L 213.942175 262.144494 
L 223.467125 260.138391 
L 232.992075 258.60993 
L 242.517025 258.418873 
L 252.041975 254.406665 
L 261.566925 251.540803 
L 271.091875 248.101767 
L 280.616825 245.140376 
L 290.141775 244.376146 
L 299.666725 241.03264 
L 309.191675 233.772454 
L 318.716625 229.091545 
L 328.241575 224.410636 
L 337.766525 216.577278 
L 347.291475 209.221564 
L 356.816425 203.012195 
L 366.341375 198.140229 
L 375.866325 187.058893 
L 385.391275 169.577131 
L 394.916225 157.158393 
L 404.441175 145.503885 
L 413.966125 130.50587 
L 423.491075 119.902178 
L 433.016025 108.916372 
L 442.540975 98.026094 
L 452.065925 79.780101 
L 461.590875 67.647949 
L 471.115825 67.265834 
L 480.640775 72.23333 
L 490.165725 80.448803 
L 499.690675 93.058598 
L 509.215625 104.330991 
L 518.740575 108.24767 
L 528.265525 111.30459 
L 537.790475 107.961084 
L 547.315425 111.686705 
L 556.840375 117.131845 
L 566.365325 127.162364 
L 575.890275 148.847391 
L 585.415225 163.367762 
L 594.940175 170.054775 
L 604.465125 181.804812 
L 613.990075 197.758114 
L 623.515025 211.705312 
L 633.039975 222.022417 
L 642.564925 232.052937 
L 652.089875 241.701341 
L 661.614825 246.38225 
L 671.139775 251.063159 
L 680.664725 254.979838 
L 690.189675 258.60993 
L 699.714625 263.481897 
L 709.239575 265.488001 
L 718.764525 266.156702 
L 728.289475 267.303047 
L 737.814425 269.213622 
L 747.339375 270.93314 
L 756.864325 271.792899 
L 766.389275 272.652657 
L 775.914225 273.034772 
L 785.439175 272.652657 
L 794.964125 272.748186 
L 804.489075 273.22583 
L 814.014025 273.321359 
L 823.538975 273.607945 
L 833.063925 273.607945 
L 842.588875 273.512416 
L 852.113825 273.607945 
L 861.638775 273.607945 
L 871.163725 273.607945 
L 880.688675 273.512416 
L 890.213625 273.512416 
L 899.738575 273.799002 
L 909.263525 273.799002 
L 918.788475 273.416887 
L 928.313425 273.321359 
L 937.838375 273.130301 
L 947.363325 272.939244 
L 956.888275 273.034772 
L 966.413225 272.843715 
L 975.938175 268.544921 
L 985.463125 264.437185 
" clip-path="url(#p4d56c7e2c2)" style="fill: none; stroke: #f0ad4e; stroke-linecap: square"/>
   </g>
   <g id="line2d_12">
    <path d="M 32.968125 273.99006 
L 985.463125 273.99006 
" clip-path="url(#p4d56c7e2c2)" style="fill: none; stroke: #dedede; stroke-width: 2; stroke-linecap: square"/>
   </g>
   <g id="text_14">
    <!-- FastQC: Per Sequence GC Content -->
    <g transform="translate(372.579375 19.3575) scale(0.16 -0.16)">
     <defs>
      <path id="DejaVuSans-46" d="M 628 4666 
L 3309 4666 
L 3309 4134 
L 1259 4134 
L 1259 2759 
L 3109 2759 
L 3109 2228 
L 1259 2228 
L 1259 0 
L 628 0 
L 628 4666 
z
" transform="scale(0.015625)"/>
      <path id="DejaVuSans-73" d="M 2834 3397 
L 2834 2853 
Q 2591 2978 2328 3040 
Q 2066 3103 1784 3103 
Q 1356 3103 1142 2972 
Q 928 2841 928 2578 
Q 928 2378 1081 2264 
Q 1234 2150 1697 2047 
L 1894 2003 
Q 2506 1872 2764 1633 
Q 3022 1394 3022 966 
Q 3022 478 2636 193 
Q 2250 -91 1575 -91 
Q 1294 -91 989 -36 
Q 684 19 347 128 
L 347 722 
Q 666 556 975 473 
Q 1284 391 1588 391 
Q 1994 391 2212 530 
Q 2431 669 2431 922 
Q 2431 1156 2273 1281 
Q 2116 1406 1581 1522 
L 1381 1569 
Q 847 1681 609 1914 
Q 372 2147 372 2553 
Q 372 3047 722 3315 
Q 1072 3584 1716 3584 
Q 2034 3584 2315 3537 
Q 2597 3491 2834 3397 
z
" transform="scale(0.015625)"/>
      <path id="DejaVuSans-51" d="M 2522 4238 
Q 1834 4238 1429 3725 
Q 1025 3213 1025 2328 
Q 1025 1447 1429 934 
Q 1834 422 2522 422 
Q 3209 422 3611 934 
Q 4013 1447 4013 2328 
Q 4013 3213 3611 3725 
Q 3209 4238 2522 4238 
z
M 3406 84 
L 4238 -825 
L 3475 -825 
L 2784 -78 
Q 2681 -84 2626 -87 
Q 2572 -91 2522 -91 
Q 1538 -91 948 567 
Q 359 1225 359 2328 
Q 359 3434 948 4092 
Q 1538 4750 2522 4750 
Q 3503 4750 4090 4092 
Q 4678 3434 4678 2328 
Q 4678 1516 4351 937 
Q 4025 359 3406 84 
z
" transform="scale(0.015625)"/>
      <path id="DejaVuSans-3a" d="M 750 794 
L 1409 794 
L 1409 0 
L 750 0 
L 750 794 
z
M 750 3309 
L 1409 3309 
L 1409 2516 
L 750 2516 
L 750 3309 
z
" transform="scale(0.015625)"/>
      <path id="DejaVuSans-53" d="M 3425 4513 
L 3425 3897 
Q 3066 4069 2747 4153 
Q 2428 4238 2131 4238 
Q 1616 4238 1336 4038 
Q 1056 3838 1056 3469 
Q 1056 3159 1242 3001 
Q 1428 2844 1947 2747 
L 2328 2669 
Q 3034 2534 3370 2195 
Q 3706 1856 3706 1288 
Q 3706 609 3251 259 
Q 2797 -91 1919 -91 
Q 1588 -91 1214 -16 
Q 841 59 441 206 
L 441 856 
Q 825 641 1194 531 
Q 1563 422 1919 422 
Q 2459 422 2753 634 
Q 3047 847 3047 1241 
Q 3047 1584 2836 1778 
Q 2625 1972 2144 2069 
L 1759 2144 
Q 1053 2284 737 2584 
Q 422 2884 422 3419 
Q 422 4038 858 4394 
Q 1294 4750 2059 4750 
Q 2388 4750 2728 4690 
Q 3069 4631 3425 4513 
z
" transform="scale(0.015625)"/>
      <path id="DejaVuSans-71" d="M 947 1747 
Q 947 1113 1208 752 
Q 1469 391 1925 391 
Q 2381 391 2643 752 
Q 2906 1113 2906 1747 
Q 2906 2381 2643 2742 
Q 2381 3103 1925 3103 
Q 1469 3103 1208 2742 
Q 947 2381 947 1747 
z
M 2906 525 
Q 2725 213 2448 61 
Q 2172 -91 1784 -91 
Q 1150 -91 751 415 
Q 353 922 353 1747 
Q 353 2572 751 3078 
Q 1150 3584 1784 3584 
Q 2172 3584 2448 3432 
Q 2725 3281 2906 2969 
L 2906 3500 
L 3481 3500 
L 3481 -1331 
L 2906 -1331 
L 2906 525 
z
" transform="scale(0.015625)"/>
      <path id="DejaVuSans-75" d="M 544 1381 
L 544 3500 
L 1119 3500 
L 1119 1403 
Q 1119 906 1312 657 
Q 1506 409 1894 409 
Q 2359 409 2629 706 
Q 2900 1003 2900 1516 
L 2900 3500 
L 3475 3500 
L 3475 0 
L 2900 0 
L 2900 538 
Q 2691 219 2414 64 
Q 2138 -91 1772 -91 
Q 1169 -91 856 284 
Q 544 659 544 1381 
z
M 1991 3584 
L 1991 3584 
z
" transform="scale(0.015625)"/>
      <path id="DejaVuSans-6f" d="M 1959 3097 
Q 1497 3097 1228 2736 
Q 959 2375 959 1747 
Q 959 1119 1226 758 
Q 1494 397 1959 397 
Q 2419 397 2687 759 
Q 2956 1122 2956 1747 
Q 2956 2369 2687 2733 
Q 2419 3097 1959 3097 
z
M 1959 3584 
Q 2709 3584 3137 3096 
Q 3566 2609 3566 1747 
Q 3566 888 3137 398 
Q 2709 -91 1959 -91 
Q 1206 -91 779 398 
Q 353 888 353 1747 
Q 353 2609 779 3096 
Q 1206 3584 1959 3584 
z
" transform="scale(0.015625)"/>
     </defs>
     <use xlink:href="#DejaVuSans-46"/>
     <use xlink:href="#DejaVuSans-61" x="48.394531"/>
     <use xlink:href="#DejaVuSans-73" x="109.673828"/>
     <use xlink:href="#DejaVuSans-74" x="161.773438"/>
     <use xlink:href="#DejaVuSans-51" x="200.982422"/>
     <use xlink:href="#DejaVuSans-43" x="279.693359"/>
     <use xlink:href="#DejaVuSans-3a" x="349.517578"/>
     <use xlink:href="#DejaVuSans-20" x="383.208984"/>
     <use xlink:href="#DejaVuSans-50" x="414.996094"/>
     <use xlink:href="#DejaVuSans-65" x="471.673828"/>
     <use xlink:href="#DejaVuSans-72" x="533.197266"/>
     <use xlink:href="#DejaVuSans-20" x="574.310547"/>
     <use xlink:href="#DejaVuSans-53" x="606.097656"/>
     <use xlink:href="#DejaVuSans-65" x="669.574219"/>
     <use xlink:href="#DejaVuSans-71" x="731.097656"/>
     <use xlink:href="#DejaVuSans-75" x="794.574219"/>
     <use xlink:href="#DejaVuSans-65" x="857.953125"/>
     <use xlink:href="#DejaVuSans-6e" x="919.476562"/>
     <use xlink:href="#DejaVuSans-63" x="982.855469"/>
     <use xlink:href="#DejaVuSans-65" x="1037.835938"/>
     <use xlink:href="#DejaVuSans-20" x="1099.359375"/>
     <use xlink:href="#DejaVuSans-47" x="1131.146484"/>
     <use xlink:href="#DejaVuSans-43" x="1208.636719"/>
     <use xlink:href="#DejaVuSans-20" x="1278.460938"/>
     <use xlink:href="#DejaVuSans-43" x="1310.248047"/>
     <use xlink:href="#DejaVuSans-6f" x="1380.072266"/>
     <use xlink:href="#DejaVuSans-6e" x="1441.253906"/>
     <use xlink:href="#DejaVuSans-74" x="1504.632812"/>
     <use xlink:href="#DejaVuSans-65" x="1543.841797"/>
     <use xlink:href="#DejaVuSans-6e" x="1605.365234"/>
     <use xlink:href="#DejaVuSans-74" x="1668.744141"/>
    </g>
   </g>
   <g id="legend_1">
    <g id="line2d_13">
     <path d="M 40.168125 303.490394 
L 48.168125 303.490394 
L 56.168125 303.490394 
" style="fill: none; stroke: #5cb85c; stroke-linecap: square"/>
    </g>
    <g id="text_15">
     <!-- Sample_X_1 -->
     <g transform="translate(62.568125 306.290394) scale(0.08 -0.08)">
      <defs>
       <path id="DejaVuSans-6d" d="M 3328 2828 
Q 3544 3216 3844 3400 
Q 4144 3584 4550 3584 
Q 5097 3584 5394 3201 
Q 5691 2819 5691 2113 
L 5691 0 
L 5113 0 
L 5113 2094 
Q 5113 2597 4934 2840 
Q 4756 3084 4391 3084 
Q 3944 3084 3684 2787 
Q 3425 2491 3425 1978 
L 3425 0 
L 2847 0 
L 2847 2094 
Q 2847 2600 2669 2842 
Q 2491 3084 2119 3084 
Q 1678 3084 1418 2786 
Q 1159 2488 1159 1978 
L 1159 0 
L 581 0 
L 581 3500 
L 1159 3500 
L 1159 2956 
Q 1356 3278 1631 3431 
Q 1906 3584 2284 3584 
Q 2666 3584 2933 3390 
Q 3200 3197 3328 2828 
z
" transform="scale(0.015625)"/>
       <path id="DejaVuSans-70" d="M 1159 525 
L 1159 -1331 
L 581 -1331 
L 581 3500 
L 1159 3500 
L 1159 2969 
Q 1341 3281 1617 3432 
Q 1894 3584 2278 3584 
Q 2916 3584 3314 3078 
Q 3713 2572 3713 1747 
Q 3713 922 3314 415 
Q 2916 -91 2278 -91 
Q 1894 -91 1617 61 
Q 1341 213 1159 525 
z
M 3116 1747 
Q 3116 2381 2855 2742 
Q 2594 3103 2138 3103 
Q 1681 3103 1420 2742 
Q 1159 2381 1159 1747 
Q 1159 1113 1420 752 
Q 1681 391 2138 391 
Q 2594 391 2855 752 
Q 3116 1113 3116 1747 
z
" transform="scale(0.015625)"/>
       <path id="DejaVuSans-6c" d="M 603 4863 
L 1178 4863 
L 1178 0 
L 603 0 
L 603 4863 
z
" transform="scale(0.015625)"/>
       <path id="DejaVuSans-5f" d="M 3263 -1063 
L 3263 -1509 
L -63 -1509 
L -63 -1063 
L 3263 -1063 
z
" transform="scale(0.015625)"/>
       <path id="DejaVuSans-58" d="M 403 4666 
L 1081 4666 
L 2241 2931 
L 3406 4666 
L 4084 4666 
L 2584 2425 
L 4184 0 
L 3506 0 
L 2194 1984 
L 872 0 
L 191 0 
L 1856 2491 
L 403 4666 
z
" transform="scale(0.015625)"/>
      </defs>
      <use xlink:href="#DejaVuSans-53"/>
      <use xlink:href="#DejaVuSans-61" x="63.476562"/>
      <use xlink:href="#DejaVuSans-6d" x="124.755859"/>
      <use xlink:href="#DejaVuSans-70" x="222.167969"/>
      <use xlink:href="#DejaVuSans-6c" x="285.644531"/>
      <use xlink:href="#DejaVuSans-65" x="313.427734"/>
      <use xlink:href="#DejaVuSans-5f" x="374.951172"/>
      <use xlink:href="#DejaVuSans-58" x="424.951172"/>
      <use xlink:href="#DejaVuSans-5f" x="493.457031"/>
      <use xlink:href="#DejaVuSans-31" x="543.457031"/>
     </g>
    </g>
    <g id="line2d_14">
     <path d="M 40.168125 315.455394 
L 48.168125 315.455394 
L 56.168125 315.455394 
" style="fill: none; stroke: #d9534f; stroke-linecap: square"/>
    </g>
    <g id="text_16">
     <!-- Sample_X_2 -->
     <g transform="translate(62.568125 318.255394) scale(0.08 -0.08)">
      <use xlink:href="#DejaVuSans-53"/>
      <use xlink:href="#DejaVuSans-61" x="63.476562"/>
      <use xlink:href="#DejaVuSans-6d" x="124.755859"/>
      <use xlink:href="#DejaVuSans-70" x="222.167969"/>
      <use xlink:href="#DejaVuSans-6c" x="285.644531"/>
      <use xlink:href="#DejaVuSans-65" x="313.427734"/>
      <use xlink:href="#DejaVuSans-5f" x="374.951172"/>
      <use xlink:href="#DejaVuSans-58" x="424.951172"/>
      <use xlink:href="#DejaVuSans-5f" x="493.457031"/>
      <use xlink:href="#DejaVuSans-32" x="543.457031"/>
     </g>
    </g>
    <g id="line2d_15">
     <path d="M 257.54375 303.490394 
L 265.54375 303.490394 
L 273.54375 303.490394 
" style="fill: none; stroke: #5cb85c; stroke-linecap: square"/>
    </g>
    <g id="text_17">
     <!-- Sample_Y_1 -->
     <g transform="translate(279.94375 306.290394) scale(0.08 -0.08)">
      <defs>
       <path id="DejaVuSans-59" d="M -13 4666 
L 666 4666 
L 1959 2747 
L 3244 4666 
L 3922 4666 
L 2272 2222 
L 2272 0 
L 1638 0 
L 1638 2222 
L -13 4666 
z
" transform="scale(0.015625)"/>
      </defs>
      <use xlink:href="#DejaVuSans-53"/>
      <use xlink:href="#DejaVuSans-61" x="63.476562"/>
      <use xlink:href="#DejaVuSans-6d" x="124.755859"/>
      <use xlink:href="#DejaVuSans-70" x="222.167969"/>
      <use xlink:href="#DejaVuSans-6c" x="285.644531"/>
      <use xlink:href="#DejaVuSans-65" x="313.427734"/>
      <use xlink:href="#DejaVuSans-5f" x="374.951172"/>
      <use xlink:href="#DejaVuSans-59" x="424.951172"/>
      <use xlink:href="#DejaVuSans-5f" x="486.035156"/>
      <use xlink:href="#DejaVuSans-31" x="536.035156"/>
     </g>
    </g>
    <g id="line2d_16">
     <path d="M 474.325625 303.490394 
L 482.325625 303.490394 
L 490.325625 303.490394 
" style="fill: none; stroke: #d9534f; stroke-linecap: square"/>
    </g>
    <g id="text_18">
     <!-- Sample_Y_2 -->
     <g transform="translate(496.725625 306.290394) scale(0.08 -0.08)">
      <use xlink:href="#DejaVuSans-53"/>
      <use xlink:href="#DejaVuSans-61" x="63.476562"/>
      <use xlink:href="#DejaVuSans-6d" x="124.755859"/>
      <use xlink:href="#DejaVuSans-70" x="222.167969"/>
      <use xlink:href="#DejaVuSans-6c" x="285.644531"/>
      <use xlink:href="#DejaVuSans-65" x="313.427734"/>
      <use xlink:href="#DejaVuSans-5f" x="374.951172"/>
      <use xlink:href="#DejaVuSans-59" x="424.951172"/>
      <use xlink:href="#DejaVuSans-5f" x="486.035156"/>
      <use xlink:href="#DejaVuSans-32" x="536.035156"/>
     </g>
    </g>
    <g id="line2d_17">
     <path d="M 691.1075 303.490394 
L 699.1075 303.490394 
L 707.1075 303.490394 
" style="fill: none; stroke: #5cb85c; stroke-linecap: square"/>
    </g>
    <g id="text_19">
     <!-- Sample_Y_3 -->
     <g transform="translate(713.5075 306.290394) scale(0.08 -0.08)">
      <use xlink:href="#DejaVuSans-53"/>
      <use xlink:href="#DejaVuSans-61" x="63.476562"/>
      <use xlink:href="#DejaVuSans-6d" x="124.755859"/>
      <use xlink:href="#DejaVuSans-70" x="222.167969"/>
      <use xlink:href="#DejaVuSans-6c" x="285.644531"/>
      <use xlink:href="#DejaVuSans-65" x="313.427734"/>
      <use xlink:href="#DejaVuSans-5f" x="374.951172"/>
      <use xlink:href="#DejaVuSans-59" x="424.951172"/>
      <use xlink:href="#DejaVuSans-5f" x="486.035156"/>
      <use xlink:href="#DejaVuSans-33" x="536.035156"/>
     </g>
    </g>
    <g id="line2d_18">
     <path d="M 907.889375 303.490394 
L 915.889375 303.490394 
L 923.889375 303.490394 
" style="fill: none; stroke: #f0ad4e; stroke-linecap: square"/>
    </g>
    <g id="text_20">
     <!-- Sample_Y_4 -->
     <g transform="translate(930.289375 306.290394) scale(0.08 -0.08)">
      <use xlink:href="#DejaVuSans-53"/>
      <use xlink:href="#DejaVuSans-61" x="63.476562"/>
      <use xlink:href="#DejaVuSans-6d" x="124.755859"/>
      <use xlink:href="#DejaVuSans-70" x="222.167969"/>
      <use xlink:href="#DejaVuSans-6c" x="285.644531"/>
      <use xlink:href="#DejaVuSans-65" x="313.427734"/>
      <use xlink:href="#DejaVuSans-5f" x="374.951172"/>
      <use xlink:href="#DejaVuSans-59" x="424.951172"/>
      <use xlink:href="#DejaVuSans-5f" x="486.035156"/>
      <use xlink:href="#DejaVuSans-34" x="536.035156"/>
     </g>
    </g>
   </g>
  </g>
 </g>
 <defs>
  <clipPath id="p4d56c7e2c2">
   <rect x="32.968125" y="31.48286" width="952.495" height="242.5072"/>
  </clipPath>
 </defs>
</svg>
